<?xml version="1.0" encoding="utf-8"?>
<svg viewBox="21 31 220 182" xmlns="http://www.w3.org/2000/svg">
  <defs>
    <path id="path-0" style="fill: none;" d="M 108 134 C 116 121 118 119 120 116 C 122 114 125 111 127 109 C 130 105 133 103 135 100 C 139 97 143 96 146 94 C 151 92 156 90 161 89 C 166 88 171 88 175 88 C 183 88 189 87 194 90 C 200 93 204 95 209 96 C 214 96 218 98 222 99 C 228 101 232 104 235 107 C 243 107 252 116 257 121 C 260 124 263 126 266 128 C 270 130 274 132 276 135 C 279 139 282 142 284 146 C 285 154 282 155 286 161 C 289 165 291 170 291 173 C 292 177 291 180 293 183 C 293 189 293 195 293 200 C 293 205 293 210 292 215 C 291 220 290 224 288 227 C 287 231 283 233 282 236 C 278 240 275 242 272 245 C 269 247 266 249 264 250 C 259 253 256 253 252 255 L 250 255 C 249 255 247 256 246 256"/>
  </defs>
  <circle style="paint-order: stroke; stroke: black; fill: none" cx="239" cy="146" r="98" transform="matrix(1, 0, 0, 0.896927, -99.575943, -6.28694)"/>
  <polyline style="stroke: rgb(0, 0, 0); fill: rgb(255, 255, 255);" points="53 178 59 78 201 42 210 192"/>
  <path style="stroke: rgb(0, 0, 0); fill: rgb(255, 255, 255);" d="M 182 192 C 233 191 233 141 183 102 C 134 63 72 64 71 104 C 70 106 71 108 72 111" transform="matrix(0.992907, -0.118891, 0.118891, 0.992907, -14.74287, 18.237446)"/>
  <path d="M 111 129 L 109 133 L 108 133 L 109 131 L 101 126 L 100 128 L 100 128 L 101 125 L 109 130 L 110 129 L 111 129 ZM 115 124 L 114 125 L 113 124 L 114 123 L 115 124 ZM 121 114 L 118 119 L 117 119 L 116 114 C 116 113 116 113 115 112 C 115 112 115 111 115 111 C 115 111 114 111 114 111 C 114 110 113 110 113 110 C 112 110 112 110 111 111 C 111 112 111 112 111 113 C 111 114 111 114 112 114 L 111 115 L 111 115 C 111 115 110 114 110 114 C 110 113 110 113 110 112 C 110 112 110 111 111 111 C 111 110 111 110 112 110 C 112 109 113 109 113 109 C 114 109 114 109 115 110 C 115 110 115 110 116 111 C 116 111 116 111 116 112 C 116 112 116 113 117 114 L 118 118 L 118 118 L 120 114 L 119 113 L 120 113 L 121 114 ZM 126 110 L 126 110 L 125 109 L 126 109 L 126 110 ZM 133 103 C 132 104 132 104 131 104 C 131 104 130 104 130 104 C 129 104 129 104 128 103 L 128 103 L 129 103 C 129 103 129 103 130 103 C 130 103 131 103 131 103 C 131 103 132 103 132 103 C 133 102 133 101 133 101 C 133 100 133 100 132 99 C 132 99 131 99 130 99 C 130 99 129 99 129 100 L 128 100 L 128 100 L 128 99 C 129 99 129 98 129 98 C 129 98 129 97 129 97 C 129 97 129 96 128 96 C 128 95 127 95 127 95 C 126 95 126 95 125 96 C 125 96 125 97 125 97 C 124 97 124 98 125 98 C 125 99 125 99 125 99 L 125 100 L 125 100 C 124 99 124 99 124 98 C 124 98 124 97 124 97 C 124 96 124 96 125 95 C 125 95 126 94 127 94 C 128 94 128 95 129 95 C 129 96 130 96 130 97 C 130 97 130 98 129 98 C 130 98 131 98 131 98 C 132 98 132 98 133 99 C 133 99 133 100 134 100 C 134 101 134 101 134 102 C 133 102 133 103 133 103 ZM 140 97 L 139 97 L 139 96 L 140 96 L 140 97 ZM 152 92 L 148 93 L 148 92 L 149 92 L 149 90 L 144 92 L 144 91 L 146 83 L 147 82 L 149 89 L 151 88 L 151 89 L 149 90 L 150 92 L 151 91 L 152 92 Z M 146 85 L 145 91 L 148 89 L 146 84 L 146 84 L 146 85 ZM 158 90 L 157 90 L 157 89 L 158 89 L 158 90 ZM 167 88 C 166 88 166 88 165 88 C 165 88 164 88 164 87 C 164 87 163 86 163 86 L 163 86 L 164 86 C 164 86 165 87 165 87 C 165 88 166 88 167 88 C 167 88 168 87 168 87 C 169 86 169 86 169 85 C 169 84 168 83 168 83 C 168 82 167 82 166 82 C 166 82 165 82 165 83 C 164 83 164 83 164 84 L 163 84 L 164 78 L 169 77 L 169 79 L 168 79 L 168 78 L 164 79 L 164 82 C 164 82 165 82 165 82 C 165 82 165 82 165 82 C 166 82 166 81 166 81 C 167 81 168 81 168 82 C 168 82 169 82 169 83 C 169 83 170 84 170 85 C 170 85 170 86 169 87 C 169 87 169 87 168 88 C 168 88 167 88 167 88 ZM 177 88 L 176 88 L 176 87 L 177 87 L 177 88 ZM 186 88 C 185 88 184 88 184 87 C 183 87 183 87 183 86 C 183 85 182 85 183 84 L 183 82 C 183 81 183 80 183 79 C 183 78 184 78 184 78 C 185 77 186 77 186 77 C 187 77 187 77 187 77 C 188 77 188 77 188 78 L 188 78 C 188 78 188 78 187 78 C 187 78 187 78 186 78 C 186 78 185 78 184 79 C 184 79 184 80 183 81 L 183 82 C 184 82 184 81 185 81 C 185 81 186 81 186 81 C 187 81 187 81 188 81 C 188 82 189 82 189 83 C 189 83 189 84 189 85 C 189 85 189 86 189 86 C 188 87 188 87 187 88 C 187 88 186 88 186 88 Z M 186 87 C 186 87 187 87 187 87 C 187 87 188 86 188 86 C 188 86 188 85 188 85 C 188 84 188 83 188 82 C 187 82 187 82 186 82 C 185 82 185 82 185 82 C 184 82 184 82 184 82 C 184 83 183 83 183 83 L 183 84 C 183 85 184 86 184 86 C 184 87 185 87 186 87 ZM 195 91 L 194 90 L 195 89 L 196 89 L 195 91 ZM 203 94 L 202 94 L 202 93 C 203 92 204 91 204 90 C 205 89 206 88 207 88 C 207 87 208 87 209 86 L 204 84 L 204 85 L 203 85 L 204 83 L 210 86 L 210 86 C 209 87 209 87 208 88 C 207 88 207 89 206 89 C 206 90 205 90 205 91 C 204 92 204 92 203 93 L 203 94 ZM 213 96 L 212 96 L 212 95 L 213 95 L 213 96 ZM 222 99 C 221 99 220 99 220 98 C 219 98 219 97 219 97 C 219 96 219 96 219 95 C 219 95 219 94 220 94 C 220 93 221 93 222 93 C 221 93 221 93 221 92 C 220 92 220 91 221 90 C 221 90 221 89 221 89 C 222 89 222 88 223 88 C 223 88 224 88 224 88 C 225 89 225 89 226 89 C 226 90 226 90 227 90 C 227 91 227 91 227 92 C 226 93 226 93 226 93 C 225 94 225 94 224 94 C 225 94 225 95 225 95 C 226 96 226 96 226 97 C 225 98 225 98 225 98 C 224 99 224 99 223 99 C 223 99 222 99 222 99 Z M 222 98 C 222 98 223 98 223 98 C 223 98 224 98 224 98 C 224 98 225 97 225 97 C 225 96 225 96 225 96 C 225 95 224 95 224 95 C 224 94 223 94 223 94 C 222 94 222 94 221 94 C 221 94 221 94 220 94 C 220 95 220 95 220 95 C 220 96 220 97 220 97 C 220 98 221 98 222 98 Z M 223 93 C 223 93 224 93 224 93 C 225 93 225 93 225 93 C 225 93 226 92 226 92 C 226 91 226 91 226 91 C 226 90 225 90 225 90 C 225 89 225 89 224 89 C 223 89 223 89 222 89 C 222 90 222 90 221 91 C 221 91 221 92 222 92 C 222 93 222 93 223 93 ZM 230 103 L 230 103 L 230 102 L 231 102 L 230 103 ZM 237 108 L 232 104 L 239 96 L 244 100 L 237 108 Z M 239 97 L 233 104 L 237 108 L 243 100 L 239 97 Z M 237 108 L 237 108 L 239 97 L 240 97 L 237 108 Z M 233 105 L 232 104 L 243 100 L 244 100 L 233 105 ZM 241 107 L 235 107 L 235 96 L 242 97 L 241 107 Z M 236 97 L 235 107 L 240 107 L 241 97 L 236 97 Z M 241 107 L 240 107 L 236 96 L 236 97 L 241 107 Z M 235 107 L 235 107 L 241 97 L 241 97 L 235 107 ZM 246 111 L 242 109 L 242 108 L 244 109 L 249 101 L 247 101 L 247 100 L 250 101 L 245 110 L 246 111 L 246 111 ZM 251 115 L 250 115 L 251 114 L 252 114 L 251 115 ZM 260 124 L 255 119 L 256 119 L 261 118 C 261 118 262 118 262 118 C 263 118 263 118 264 118 C 264 118 264 117 264 117 C 265 117 265 116 265 116 C 265 115 265 115 264 114 C 264 113 263 113 263 113 C 262 113 261 114 261 114 L 260 114 L 260 114 C 261 113 261 113 262 113 C 262 112 263 112 263 113 C 264 113 264 113 265 113 C 265 114 266 114 266 115 C 266 115 266 116 266 116 C 266 117 265 117 265 118 C 265 118 264 118 264 118 C 264 119 263 119 263 119 C 262 119 261 119 261 119 L 256 119 L 256 119 L 260 123 L 261 122 L 261 122 L 260 124 Z" transform="matrix(1.0479789972305298, 0.2439190149307251, -0.22374600172042847, 0.8955270051956177, -29.244544982910156, -56.948814392089844)" style="fill: rgb(51, 51, 51); white-space: pre;"/>
</svg>