<?xml version="1.0" encoding="utf-8"?>
<svg id="a3277a8a-60ff-4d5e-bfbb-16df02d5717d" data-name="Layer 1" width="1030.57471" height="696.9775" viewBox="0 0 1030.57471 696.9775" xmlns="http://www.w3.org/2000/svg">
  <title>i can fly</title>
  <path d="M495.9876,336.92106s14,34-7,42c0,0,30,13,37,10s12-10,12-12-7-3-7-3-13,1-3-32Z" transform="translate(-84.96231 -101.26125)" fill="#fbbebe"/>
  <circle cx="427.02529" cy="228.65981" r="25" fill="#fbbebe"/>
  <ellipse cx="410.52529" cy="223.15981" rx="22" ry="31" fill="#ff6584"/>
  <ellipse cx="394.52529" cy="213.15981" rx="22" ry="31" fill="#ff6584"/>
  <ellipse cx="372.52529" cy="190.65981" rx="11" ry="15.5" fill="#ff6584"/>
  <path d="M536.9876,372.92106s6-12,28-18,65-78,65-78-2-43,8-30,2,39,2,39l-25.80418,44.57085a97.08358,97.08358,0,0,1-17.8724,22.42615c-15.95376,14.84942-44.459,41.003-47.32342,41.003C544.9876,393.92106,536.9876,372.92106,536.9876,372.92106Z" transform="translate(-84.96231 -101.26125)" fill="#fbbebe"/>
  <path d="M501.9876,543.92106s7,85,5,93-8,24,2,71-2,44-2,44l32,14s-11-54-9-69,1-46,7-67,7-80,7-80Z" transform="translate(-84.96231 -101.26125)" fill="#fbbebe"/>
  <path d="M501.9876,543.92106s7,85,5,93-8,24,2,71-2,44-2,44l32,14s-11-54-9-69,1-46,7-67,7-80,7-80Z" transform="translate(-84.96231 -101.26125)" opacity="0.1"/>
  <path d="M537.74261,755.1021c-2.47934,1.72219-8.84818,3.47-20.755-9.181,0,0-7-10-13,0s-2,11,2,16c3.86133,4.82665,34.74673,37.60925,47.6783,36.27827a6.16621,6.16621,0,0,0,1.3217-.27827c12-4-5-17-5-17s-11.14536-17.14671-11.20891-25.24382A.66759.66759,0,0,0,537.74261,755.1021Z" transform="translate(-84.96231 -101.26125)" fill="#3f3d56"/>
  <path d="M477.9876,533.92106s-17,39-24,59c-3.675,10.5-14.79187,13.83375-24.52373,14.63175a83.87385,83.87385,0,0,0-34.26925,10.32726c-13.99626,7.85614-33.09469,16.77132-45.207,15.041-21-3-4,30-4,30s31-19,60-21,60-5,74-23,48-75,48-75Z" transform="translate(-84.96231 -101.26125)" fill="#fbbebe"/>
  <path d="M346.9876,657.92106s-10-7-2-14,11-13,11-13-14-15-19-7-27,44-22,55,10,14,16,2,21.13216-21.44741,21.13216-21.44741Z" transform="translate(-84.96231 -101.26125)" fill="#3f3d56"/>
  <path d="M532.9876,377.92106s-3.32428,6.64857-34.217.24731a18.97584,18.97584,0,0,0-20.908,9.75269c-3.875,7.75-4.375,19,9.125,33,0,0,24,27,12,38s57-7,57-7-9-6-1-24c6.28572-14.14286,5.78061-22.11225.91-28.27369a30.88363,30.88363,0,0,1-5.83871-13.04832c-1.36549-6.69413-4.73864-15.08281-13.07128-15.678,0,0-8.75922-.513-9.37961,1.74348S534.9876,376.92106,532.9876,377.92106Z" transform="translate(-84.96231 -101.26125)" fill="#6c63ff"/>
  <path d="M496.42583,399.13443c-.20653-1.4101-.45929-2.81119-.63632-4.2253-.60438-4.82791-2.89964-16.52583-10.84061-14.513-9.9613,2.52494-20.9613,27.52494-20.9613,27.52494s-9,28-22,35-49,43-49,43-30,8-19,16,25-5,25-5L434.3561,475.7a101.249,101.249,0,0,0,31.196-29.33114c7.36824-10.67142,16.59508-23.00458,22.442-27.07969a19.27945,19.27945,0,0,0,7.55716-9.8792A22.9342,22.9342,0,0,0,496.42583,399.13443Z" transform="translate(-84.96231 -101.26125)" fill="#fbbebe"/>
  <path d="M504.9876,456.92106s-46-6-72,25-45,22-43,27,98,64,154,57c34.0927-4.26159,52.24808-8.15254,61.23541-10.54465a17.445,17.445,0,0,0,9.64045-6.46652,17.70419,17.70419,0,0,1,4.8741-4.4263,8.65554,8.65554,0,0,0,2.32826-12.21235c-15.85981-22.94586-58.91668-83.72865-71.07822-85.35018C535.9876,444.92106,504.9876,456.92106,504.9876,456.92106Z" transform="translate(-84.96231 -101.26125)" fill="#6c63ff"/>
  <ellipse cx="427.52529" cy="201.65981" rx="16" ry="11.5" fill="#ff6584"/>
  <path d="M 643 209 C 644 204 645 199 647 194 C 649 189 651 184 654 184 C 660 184 632 158 632 158 C 632 158 630 161 628 166 C 625 169 623 172 621 175 C 617 179 613 183 609 186 C 597 194 643 209 643 209 Z" fill="#a0616a"/>
  <path d="M 725 312 C 725 312 787 351 768 357 C 749 364 717 318 717 318 Z" fill="#a0616a"/>
  <path d="M 644 224 C 644 224 673 245 682 262 C 691 278 736 315 736 315 C 736 315 726 333 722 332 C 717 331 625 262 615 257 C 605 251 620 216 644 224 Z" fill="#6c63ff"/>
  <path d="M 642 223 C 642 223 671 244 680 261 C 689 277 734 314 734 314 C 734 314 725 332 720 331 C 716 330 623 261 613 255 C 603 250 618 215 642 223 Z" opacity="0.1"/>
  <path d="M 730 262 C 730 262 799 285 782 296 C 765 306 723 269 723 269 Z" fill="#a0616a"/>
  <path d="M 687 572 C 687 572 716 560 713 578 C 710 597 696 614 696 623 C 696 633 670 653 665 648 C 661 643 673 625 670 614 C 667 603 664 578 664 578 Z" fill="#55536e"/>
  <path d="M 685 578 C 685 578 714 566 711 585 C 708 603 694 620 694 629 C 694 639 668 659 663 654 C 658 649 671 631 668 620 C 665 609 662 585 662 585 Z" opacity="0.1"/>
  <path d="M 675 592 C 675 592 705 580 702 598 C 699 617 685 634 685 643 C 685 652 658 673 654 668 C 649 663 662 645 658 634 C 655 623 652 598 652 598 Z" fill="#55536e"/>
  <path d="M 612 481 C 612 481 703 568 700 575 C 697 583 677 600 677 600 C 677 600 607 509 612 481 Z" fill="#3f3d56"/>
  <path d="M 608 479 C 608 479 699 566 696 574 C 692 581 672 598 672 598 C 672 598 603 507 608 479 Z" opacity="0.1"/>
  <path d="M 586 323 C 586 323 609 347 603 391 C 597 436 608 479 620 493 C 632 507 683 588 683 588 C 683 588 662 623 645 605 C 628 586 577 510 577 510 C 577 510 530 419 526 395 C 521 370 519 331 532 323 C 544 316 586 323 586 323 Z" fill="#3f3d56"/>
  <circle cx="657" cy="163" r="29" fill="#a0616a"/>
  <path d="M 603 184 C 603 184 648 189 657 209 C 666 229 600 327 595 328 C 591 330 526 337 526 337 C 526 337 529 239 589 201 C 589 201 603 195 603 184 Z" fill="#6c63ff"/>
  <path id = "main-blue" d="M 628 195 C 628 195 662 209 674 223 C 686 237 739 262 739 262 C 739 262 734 282 730 282 C 725 282 618 237 608 234 C 597 231 603 194 628 195 Z" fill="#6c63ff"/>
  <path id = "shoes" d="M 655 167 C 655 167 662 159 647 153 C 647 153 662 147 665 137 C 669 128 679 113 689 137 C 698 162 715 195 659 195 C 659 195 645 198 645 185 C 645 178 649 171 655 167 Z" fill="#3f3d56"/>
</svg>