<?xml version="1.0" encoding="utf-8"?>
<svg viewBox="65 103 362 287" xmlns="http://www.w3.org/2000/svg" xmlns:bx="https://boxy-svg.com">
  <path d="M 168 261 m -117 0 a 117 105 0 1 0 234 0 a 117 105 0 1 0 -234 0 Z M 168 261 m -73 0 a 73 105 0 0 1 146 0 a 73 105 0 0 1 -146 0 Z" style="fill: rgb(214, 96, 73);" transform="matrix(-0.124617, 0.992205, -0.975094, -0.260858, 578.831482, 147.970551)" bx:shape="ring 168 261 73 105 117 105 1@32bf387b"/>
  <path d="M 114 286 C 116 286 119 286 123 286 C 127 286 129 286 131 286 L 132 286 C 137 286 141 287 144 289 C 146 291 148 294 148 297 C 148 302 144 306 138 308 L 138 308 C 142 308 145 310 147 312 C 149 315 150 317 150 321 C 150 325 149 329 146 331 C 143 334 138 335 132 335 C 131 335 128 335 125 334 C 121 334 118 334 116 334 C 116 334 115 334 115 334 C 114 334 114 334 114 334 C 114 333 114 333 114 332 L 119 331 C 119 330 119 327 119 324 L 119 289 L 114 288 C 114 288 114 287 114 286 Z M 130 310 L 125 310 L 125 331 C 127 332 129 332 130 332 C 135 332 138 331 140 329 C 142 327 143 325 143 321 C 143 318 142 315 140 313 C 137 311 134 310 130 310 Z M 131 288 C 129 288 127 288 126 289 C 125 290 125 293 125 296 L 125 307 L 130 307 C 134 307 137 306 138 304 C 140 303 141 301 141 298 C 141 295 140 292 138 291 C 136 289 134 288 131 288 ZM 156 318 C 156 316 156 313 157 311 C 157 309 158 307 160 306 C 161 304 163 303 165 302 C 166 301 168 301 171 301 C 173 301 175 301 177 302 C 179 303 181 304 182 306 C 183 307 184 309 185 311 C 186 313 186 316 186 318 C 186 321 186 323 185 325 C 184 327 183 329 182 330 C 180 332 179 333 177 334 C 175 335 173 335 171 335 C 168 335 166 335 164 334 C 163 333 161 332 160 330 C 158 329 157 327 157 325 C 156 323 156 321 156 318 Z M 164 307 C 163 309 162 313 162 318 C 162 320 162 323 163 324 C 163 326 164 328 164 329 C 165 330 166 331 167 332 C 168 332 170 333 171 333 C 172 333 173 332 174 332 C 175 331 176 330 177 329 C 178 328 179 326 179 324 C 180 323 180 320 180 318 C 180 316 180 313 179 312 C 179 310 178 308 177 307 C 176 306 175 305 174 304 C 173 304 172 303 171 303 C 168 303 166 305 164 307 ZM 191 318 C 191 316 192 313 192 311 C 193 309 194 307 195 306 C 197 304 198 303 200 302 C 202 301 204 301 206 301 C 209 301 211 301 213 302 C 214 303 216 304 217 306 C 219 307 220 309 220 311 C 221 313 222 316 222 318 C 222 321 221 323 220 325 C 220 327 219 329 217 330 C 216 332 214 333 213 334 C 211 335 209 335 206 335 C 204 335 202 335 200 334 C 198 333 197 332 195 330 C 194 329 193 327 192 325 C 192 323 191 321 191 318 Z M 200 307 C 198 309 197 313 197 318 C 197 320 198 323 198 324 C 199 326 199 328 200 329 C 201 330 202 331 203 332 C 204 332 205 333 206 333 C 208 333 209 332 210 332 C 211 331 212 330 213 329 C 214 328 214 326 215 324 C 215 323 215 320 215 318 C 215 316 215 313 215 312 C 214 310 214 308 213 307 C 212 306 211 305 210 304 C 209 304 208 303 206 303 C 204 303 202 305 200 307 ZM 236 295 L 236 303 L 244 303 C 244 304 244 304 244 304 C 244 305 244 305 244 306 L 236 307 L 236 323 C 236 326 236 328 236 330 C 237 331 238 332 239 332 C 240 332 242 331 244 330 C 244 331 244 331 245 332 C 243 333 243 334 242 334 C 241 334 240 335 240 335 C 239 335 238 335 237 335 C 235 335 233 334 232 333 C 230 331 230 329 230 326 L 230 306 L 226 306 C 226 305 225 305 225 305 C 225 304 226 304 226 303 C 227 303 228 303 229 302 C 229 302 230 301 231 300 C 231 299 232 298 232 298 C 232 297 233 296 233 295 C 233 295 234 295 234 295 C 235 295 235 295 236 295 ZM 274 310 C 273 311 271 311 268 311 C 268 306 266 303 263 303 C 260 303 258 305 257 307 C 255 310 254 314 254 318 C 254 323 255 326 256 329 C 258 331 260 332 263 332 C 266 332 269 331 272 329 C 273 329 273 330 273 331 C 270 334 267 335 262 335 C 258 335 255 334 252 331 C 249 328 248 324 248 318 C 248 313 249 308 252 305 C 255 302 259 301 263 301 C 266 301 268 302 271 303 C 273 305 274 307 274 310 ZM 284 326 C 284 328 285 330 285 330 C 286 331 287 332 289 332 C 290 332 292 331 293 331 C 295 330 296 329 297 327 L 297 318 C 293 318 290 319 288 320 C 285 321 284 323 284 326 Z M 297 316 L 297 313 C 297 309 297 307 296 305 C 295 304 294 303 292 303 C 290 303 289 304 288 305 C 287 306 286 308 285 311 C 284 311 283 311 283 311 C 281 311 280 311 280 310 C 280 307 281 305 283 303 C 286 302 289 301 292 301 C 296 301 299 302 300 303 C 302 305 303 308 303 312 L 303 329 C 303 330 303 330 303 331 L 308 332 C 308 332 308 333 308 334 C 305 334 302 334 299 335 C 298 335 298 334 298 334 L 298 330 C 294 333 291 335 287 335 C 284 335 282 334 281 333 C 279 332 279 330 279 327 C 279 324 280 321 284 319 C 287 317 291 316 297 316 ZM 355 324 L 355 313 C 355 307 353 304 349 304 C 346 304 343 306 341 311 L 341 331 L 345 332 C 346 332 346 333 345 334 C 343 334 340 334 338 334 C 336 334 333 334 330 334 C 330 333 330 333 330 332 L 335 331 C 335 329 335 326 335 324 L 335 313 C 335 307 333 304 330 304 C 328 304 326 305 325 306 C 324 307 322 309 321 311 L 321 331 L 326 332 C 326 332 326 333 326 334 C 323 334 320 334 318 334 C 316 334 313 334 310 334 C 310 333 310 333 310 332 L 315 331 C 315 329 315 326 315 324 L 315 307 C 315 306 315 306 315 305 L 310 304 C 310 304 310 303 310 302 C 313 302 316 301 320 301 C 321 301 321 302 321 302 C 321 303 321 305 321 307 C 324 303 327 301 331 301 C 333 301 335 301 337 302 C 339 303 340 305 340 307 C 344 303 347 301 351 301 C 353 301 356 301 357 303 C 359 304 360 307 360 310 L 360 331 L 365 332 C 365 332 365 333 365 334 C 363 334 360 334 357 334 C 356 334 353 334 350 334 C 349 333 349 333 350 332 L 354 331 C 355 329 355 326 355 324 ZM 386 332 C 389 332 391 331 392 328 C 394 326 395 322 395 317 C 395 313 394 310 393 307 C 391 305 389 304 387 304 C 383 304 380 306 378 309 L 378 328 C 380 331 383 332 386 332 Z M 372 340 L 372 311 C 372 308 372 306 372 305 L 367 304 C 367 304 367 303 367 302 C 370 302 373 301 377 301 C 378 301 378 302 378 302 C 378 303 378 305 378 306 C 381 303 385 301 389 301 C 392 301 395 302 398 305 C 400 308 401 312 401 317 C 401 322 400 327 397 330 C 393 334 390 335 386 335 C 383 335 380 334 378 332 L 378 347 L 384 348 C 384 349 384 349 384 350 C 381 350 378 350 375 350 C 373 350 370 350 367 350 C 367 350 367 349 367 348 L 372 347 C 372 345 372 343 372 340 ZM 410 327 C 411 327 412 328 413 328 C 413 329 414 330 414 331 C 414 332 413 333 413 334 C 412 334 411 335 410 335 C 409 335 408 334 407 334 C 407 333 406 332 406 331 C 406 330 407 329 407 328 C 408 328 409 327 410 327 ZM 444 324 L 444 313 C 444 310 443 307 442 306 C 442 305 440 304 438 304 C 435 304 432 306 429 311 L 429 331 L 434 332 C 434 332 434 333 434 334 C 432 334 429 334 426 334 C 425 334 422 334 419 334 C 418 333 418 333 419 332 L 423 331 C 424 329 424 326 424 324 L 424 307 C 424 306 424 306 423 305 L 419 304 C 419 304 419 303 419 302 C 421 302 425 301 429 301 C 429 301 430 302 430 302 C 429 303 429 305 429 307 C 432 303 436 301 440 301 C 446 301 449 304 449 310 L 449 331 L 454 332 C 454 332 454 333 454 334 C 452 334 449 334 446 334 C 445 334 442 334 439 334 C 438 333 438 333 439 332 L 443 331 C 444 329 444 326 444 324 ZM 483 317 L 464 317 C 464 327 467 332 473 332 C 476 332 479 331 482 329 C 482 329 483 330 483 331 C 480 334 477 335 472 335 C 463 335 458 329 458 318 C 458 313 459 308 462 305 C 465 302 468 301 472 301 C 476 301 479 302 481 305 C 483 308 484 312 484 317 C 484 317 483 317 483 317 Z M 472 303 C 470 303 468 304 467 306 C 465 309 464 311 464 315 L 472 315 C 474 315 477 315 478 314 C 478 311 477 308 476 306 C 475 304 474 303 472 303 ZM 498 295 L 498 303 L 506 303 C 507 304 507 304 507 304 C 507 305 507 305 506 306 L 498 307 L 498 323 C 498 326 498 328 499 330 C 499 331 500 332 501 332 C 502 332 504 331 506 330 C 507 331 507 331 507 332 C 506 333 505 334 504 334 C 504 334 503 335 502 335 C 501 335 500 335 499 335 C 497 335 495 334 494 333 C 493 331 492 329 492 326 L 492 306 L 488 306 C 488 305 488 305 488 305 C 488 304 488 304 488 303 C 489 303 490 303 491 302 C 492 302 492 301 493 300 C 494 299 494 298 494 298 C 495 297 495 296 495 295 C 496 295 496 295 497 295 C 497 295 498 295 498 295 Z" transform="matrix(0.912194013595581, 0, 0, 0.9953069686889648, -35.79863739013672, -42.46033477783203)" style="fill: rgb(255, 255, 255); white-space: pre;"/>
  <path d="M 124 226 L 124 212 L 165 212 L 165 226 C 164 226 164 226 163 226 L 160 215 L 148 215 L 148 257 L 154 258 C 154 259 154 259 154 260 C 151 260 148 260 145 260 C 142 260 139 260 135 260 C 135 259 135 259 135 258 L 141 257 C 141 256 141 253 141 250 L 141 215 L 129 215 L 126 226 C 125 226 124 226 124 226 ZM 170 252 C 170 254 171 256 171 256 C 172 257 173 258 175 258 C 176 258 178 257 179 257 C 180 256 182 255 183 253 L 183 244 C 179 244 176 245 174 246 C 171 247 170 249 170 252 Z M 183 242 L 183 239 C 183 235 183 233 182 231 C 181 230 180 229 178 229 C 176 229 175 230 174 231 C 172 232 172 234 171 237 C 170 237 169 237 168 237 C 167 237 166 237 166 236 C 166 233 167 231 169 229 C 172 228 175 227 178 227 C 182 227 185 228 186 229 C 188 231 189 234 189 238 L 189 255 C 189 256 189 256 189 257 L 194 258 C 194 258 194 259 194 260 C 191 260 188 260 185 261 C 184 261 184 260 184 260 L 184 256 C 180 259 177 261 173 261 C 170 261 168 260 167 259 C 165 258 165 256 165 253 C 165 250 166 247 170 245 C 173 243 177 242 183 242 ZM 221 250 L 221 239 C 221 236 221 233 220 232 C 219 231 218 230 216 230 C 213 230 210 232 207 237 L 207 257 L 212 258 C 212 258 212 259 212 260 C 209 260 206 260 204 260 C 202 260 199 260 196 260 C 196 259 196 259 196 258 L 201 257 C 201 255 201 252 201 250 L 201 233 C 201 232 201 232 201 231 L 196 230 C 196 230 196 229 196 228 C 199 228 202 227 206 227 C 207 227 207 228 207 228 C 207 229 207 231 207 233 C 210 229 213 227 217 227 C 224 227 227 230 227 236 L 227 257 L 232 258 C 232 258 232 259 232 260 C 229 260 226 260 224 260 C 222 260 219 260 216 260 C 216 259 216 259 216 258 L 221 257 C 221 255 221 252 221 250 ZM 240 261 C 240 261 240 261 241 262 C 239 263 239 264 239 267 C 239 268 239 270 241 271 C 243 272 245 273 248 273 C 251 273 253 272 255 271 C 257 270 258 269 258 267 C 258 265 258 263 257 262 C 256 261 255 261 252 260 L 241 259 C 240 259 239 259 238 258 C 237 256 237 255 237 254 L 241 248 C 239 246 238 245 237 243 C 236 242 235 240 235 238 C 235 235 237 232 239 230 C 242 228 245 227 248 227 C 251 227 254 228 256 229 C 256 224 258 221 262 221 C 263 221 264 222 264 223 C 264 224 264 225 264 226 C 262 226 261 227 260 228 C 259 228 258 229 258 231 C 260 233 261 235 261 238 C 261 241 259 244 257 246 C 254 248 251 249 248 249 C 246 249 244 249 243 248 L 241 254 L 256 255 C 258 256 260 256 261 258 C 262 259 263 261 263 263 C 263 267 262 270 259 273 C 256 275 252 276 247 276 C 243 276 240 275 237 274 C 235 272 234 270 234 268 C 234 266 235 264 236 263 C 237 262 238 261 240 261 Z M 241 238 C 241 240 241 242 243 244 C 244 246 246 247 248 247 C 250 247 252 246 253 244 C 254 242 255 240 255 238 C 255 236 254 233 253 232 C 252 230 250 229 248 229 C 246 229 244 230 243 232 C 241 233 241 236 241 238 ZM 266 244 C 266 242 267 239 268 237 C 268 235 269 233 271 232 C 272 230 273 229 275 228 C 277 227 279 227 282 227 C 284 227 286 227 288 228 C 290 229 291 230 293 232 C 294 233 295 235 296 237 C 296 239 297 242 297 244 C 297 247 296 249 296 251 C 295 253 294 255 293 256 C 291 258 290 259 288 260 C 286 261 284 261 282 261 C 279 261 277 261 275 260 C 273 259 272 258 271 256 C 269 255 268 253 268 251 C 267 249 266 247 266 244 Z M 275 233 C 274 235 273 239 273 244 C 273 246 273 249 273 250 C 274 252 274 254 275 255 C 276 256 277 257 278 258 C 279 258 280 259 282 259 C 283 259 284 258 285 258 C 286 257 287 256 288 255 C 289 254 289 252 290 250 C 290 249 291 246 291 244 C 291 242 290 239 290 238 C 289 236 289 234 288 233 C 287 232 286 231 285 230 C 284 230 283 229 282 229 C 279 229 277 231 275 233 Z" transform="matrix(0.912194013595581, 0, 0, 0.9953069686889648, -1.9664521217346191, -25.98038673400879)" style="fill: rgb(255, 255, 255); white-space: pre;"/>
  <circle style="fill: rgb(1, 157, 162);" cx="319" cy="135" r="21" transform="matrix(1, 0, 0, 1.233066, 45.670517, -0.859908)"/>
  <circle style="fill: rgb(1, 157, 162);" cx="149" cy="358" r="21" transform="matrix(1, 0, 0, 1.233066, 111.704193, -107.668884)"/>
</svg>