<?xml version="1.0" encoding="utf-8"?>
<svg viewBox="65 103 356 287" xmlns="http://www.w3.org/2000/svg" xmlns:bx="https://boxy-svg.com">
  <path d="M 168 261 m -117 0 a 117 105 0 1 0 234 0 a 117 105 0 1 0 -234 0 Z M 168 261 m -73 0 a 73 105 0 0 1 146 0 a 73 105 0 0 1 -146 0 Z" style="fill: rgb(214, 96, 73);" transform="matrix(-0.124617, 0.992205, -0.975094, -0.260858, 578.831482, 147.970551)" bx:shape="ring 168 261 73 105 117 105 1@32bf387b"/>
  <path d="M 117 334 L 117 302 C 117 300 117 298 117 297 C 116 296 115 296 113 296 L 112 296 L 112 294 L 128 294 C 132 294 136 295 139 297 C 142 298 144 301 144 305 C 144 307 143 308 142 310 C 141 312 139 313 136 314 C 140 314 142 315 144 317 C 145 318 146 321 146 323 C 146 327 144 330 141 332 C 138 333 134 334 129 334 L 117 334 Z M 123 313 L 128 313 C 130 313 132 312 133 312 C 135 311 136 310 137 309 C 138 308 138 306 138 305 C 138 303 138 301 136 300 C 135 299 134 298 132 297 C 131 297 129 297 127 297 C 126 297 124 297 123 297 L 123 313 Z M 128 332 C 132 332 135 331 137 330 C 139 328 140 326 140 324 C 140 321 139 319 137 317 C 135 316 132 315 128 315 L 123 315 L 123 331 C 125 332 127 332 128 332 ZM 164 335 C 162 335 159 334 157 333 C 155 331 154 330 153 327 C 152 325 151 323 151 320 C 151 317 152 315 153 312 C 154 310 155 308 157 307 C 159 306 162 305 164 305 C 167 305 169 306 171 307 C 173 308 175 310 176 312 C 177 315 177 317 177 320 C 177 323 177 325 176 327 C 175 330 173 331 171 333 C 169 334 167 335 164 335 Z M 164 332 C 166 332 167 332 168 331 C 169 330 170 328 171 326 C 171 324 172 322 172 320 C 172 318 171 316 171 314 C 170 312 169 310 168 309 C 167 308 166 308 164 308 C 163 308 161 308 160 309 C 159 310 158 312 158 314 C 157 316 157 318 157 320 C 157 322 157 324 158 326 C 158 328 159 330 160 331 C 161 332 163 332 164 332 ZM 196 335 C 193 335 191 334 189 333 C 187 331 185 330 184 327 C 183 325 183 323 183 320 C 183 317 183 315 184 312 C 185 310 187 308 189 307 C 191 306 193 305 196 305 C 199 305 201 306 203 307 C 205 308 207 310 208 312 C 209 315 209 317 209 320 C 209 323 209 325 208 327 C 207 330 205 331 203 333 C 201 334 199 335 196 335 Z M 196 332 C 197 332 199 332 200 331 C 201 330 202 328 203 326 C 203 324 204 322 204 320 C 204 318 203 316 203 314 C 202 312 201 310 200 309 C 199 308 197 308 196 308 C 195 308 193 308 192 309 C 191 310 190 312 189 314 C 189 316 189 318 189 320 C 189 322 189 324 189 326 C 190 328 191 330 192 331 C 193 332 195 332 196 332 ZM 225 335 C 222 335 221 334 219 333 C 218 331 217 329 217 327 L 217 308 L 213 308 L 213 306 L 217 306 L 217 300 L 220 297 L 223 297 L 223 306 L 230 306 L 230 308 L 223 308 L 223 327 C 223 330 224 332 227 332 C 228 332 229 332 229 332 C 230 332 231 331 231 331 L 232 332 C 231 333 230 333 229 334 C 228 334 226 335 225 335 ZM 248 335 C 245 335 243 334 241 333 C 239 331 237 330 236 327 C 235 325 235 323 235 320 C 235 317 235 315 236 312 C 237 310 239 308 241 307 C 243 306 245 305 248 305 C 252 305 255 306 257 307 C 257 308 258 309 258 310 C 258 311 258 313 258 315 L 257 315 C 257 313 256 311 255 309 C 253 308 252 308 249 308 C 246 308 244 309 243 311 C 241 313 241 316 241 320 C 241 324 241 327 243 329 C 244 331 246 332 249 332 C 251 332 253 332 254 331 C 256 330 257 329 258 327 L 259 328 C 258 331 256 332 255 333 C 253 334 251 335 248 335 ZM 272 335 C 271 335 270 334 268 334 C 267 333 266 332 265 331 C 264 330 264 328 264 326 C 264 323 265 321 268 320 C 271 318 274 318 279 318 L 281 318 C 281 314 280 311 279 310 C 278 308 276 308 274 308 C 273 308 271 308 270 309 C 269 310 268 311 268 313 L 265 313 C 265 311 265 310 265 309 C 265 309 266 308 267 307 C 267 307 268 306 270 306 C 272 305 274 305 276 305 C 279 305 281 306 283 308 C 285 310 286 313 286 318 L 286 334 L 283 334 L 281 331 L 281 331 C 280 332 279 333 277 334 C 276 334 274 335 272 335 Z M 275 332 C 276 332 277 332 278 331 C 279 330 280 329 281 328 L 281 320 L 279 320 C 276 320 274 321 272 322 C 270 323 269 324 269 326 C 269 328 270 329 271 330 C 272 331 273 332 275 332 ZM 295 334 L 295 313 C 295 311 295 309 294 308 C 294 307 293 307 291 307 L 290 307 L 290 306 L 295 306 C 297 306 298 306 299 306 C 299 307 300 307 300 308 L 301 308 C 301 307 303 307 304 306 C 305 305 307 305 308 305 C 310 305 312 306 313 306 C 314 307 315 308 316 309 C 317 308 318 307 320 306 C 321 306 323 305 325 305 C 327 305 329 306 331 308 C 332 309 333 312 333 316 L 333 334 L 328 334 L 328 316 C 328 313 327 311 326 310 C 326 309 324 308 323 308 C 322 308 321 308 319 309 C 318 310 317 311 317 312 C 317 312 317 314 317 316 L 317 334 L 311 334 L 311 316 C 311 313 311 311 310 310 C 309 309 308 308 307 308 C 305 308 303 309 301 311 L 301 334 L 295 334 ZM 342 345 L 342 313 C 342 311 342 309 342 308 C 341 307 340 307 338 307 L 337 307 L 337 306 L 342 306 C 344 306 345 306 346 306 C 347 307 347 308 347 309 L 348 309 C 348 308 349 307 351 306 C 352 306 354 305 356 305 C 359 305 362 307 364 309 C 366 312 367 316 367 320 C 367 324 366 328 364 330 C 362 333 359 335 355 335 C 354 335 352 334 351 334 C 350 334 349 333 348 333 L 348 345 L 342 345 Z M 353 332 C 356 332 358 331 359 329 C 360 327 361 324 361 320 C 361 316 360 313 359 311 C 358 309 356 308 354 308 C 351 308 349 309 348 311 L 348 330 C 349 331 350 331 351 332 C 352 332 353 332 353 332 Z" transform="matrix(1, 0, 0, 1, -46.34375, -56.834861755371094)" style="fill: rgb(255, 255, 255); white-space: pre;"/>
  <path d="M 137 260 L 137 223 L 132 223 C 127 223 124 225 124 230 L 123 230 L 123 225 C 123 222 125 220 128 220 L 156 220 L 156 223 L 143 223 L 143 260 L 137 260 ZM 163 261 C 162 261 161 260 159 260 C 158 259 157 258 156 257 C 155 256 155 254 155 252 C 155 249 156 247 159 246 C 162 244 165 244 170 244 L 172 244 C 172 240 171 237 170 236 C 169 234 167 234 165 234 C 164 234 162 234 161 235 C 160 236 159 237 159 239 L 156 239 C 156 237 156 236 156 235 C 156 235 157 234 158 233 C 158 233 159 232 161 232 C 163 231 165 231 167 231 C 170 231 172 232 174 234 C 176 236 177 239 177 244 L 177 260 L 174 260 L 172 257 L 172 257 C 171 258 170 259 168 260 C 167 260 165 261 163 261 Z M 166 258 C 167 258 168 258 169 257 C 170 256 171 255 172 254 L 172 246 L 170 246 C 167 246 165 247 163 248 C 161 249 160 250 160 252 C 160 254 161 255 162 256 C 163 257 164 258 166 258 ZM 186 260 L 186 239 C 186 237 186 235 185 234 C 185 233 184 233 182 233 L 181 233 L 181 232 L 186 232 C 188 232 189 232 190 232 C 190 233 191 233 191 234 L 192 234 C 192 233 194 233 195 232 C 196 231 198 231 199 231 C 202 231 205 232 207 234 C 209 235 210 238 210 242 L 210 260 L 204 260 L 204 242 C 204 239 204 237 202 236 C 201 235 200 234 198 234 C 196 234 194 235 192 237 L 192 260 L 186 260 ZM 228 272 C 224 272 221 271 219 270 C 216 268 215 266 215 263 C 215 261 216 259 217 258 C 218 257 220 256 222 255 C 220 254 219 253 219 251 C 219 251 220 250 220 249 C 220 249 221 249 222 248 C 220 247 219 246 218 245 C 217 244 217 242 217 240 C 217 234 221 231 228 231 L 240 231 L 240 233 L 236 233 L 236 234 C 237 234 238 235 239 236 C 239 237 240 239 240 240 C 240 246 236 249 228 249 C 224 249 222 250 222 251 C 222 253 224 253 228 253 C 232 253 235 254 238 256 C 240 257 242 260 242 263 C 242 266 240 268 238 270 C 236 271 232 272 228 272 Z M 228 247 C 230 247 232 247 233 245 C 234 244 234 243 234 240 C 234 238 234 236 233 235 C 232 234 230 233 228 233 C 227 233 225 234 224 235 C 223 236 222 238 222 240 C 222 243 223 244 224 245 C 225 247 227 247 228 247 Z M 228 270 C 231 270 233 269 234 268 C 236 267 236 265 236 263 C 236 259 234 256 229 256 L 226 256 C 224 256 223 257 222 258 C 221 259 221 261 221 263 C 221 265 221 267 223 268 C 224 269 226 270 228 270 ZM 259 261 C 256 261 254 260 252 259 C 250 257 248 256 247 253 C 246 251 246 249 246 246 C 246 243 246 241 247 238 C 248 236 250 234 252 233 C 254 232 256 231 259 231 C 262 231 264 232 266 233 C 268 234 270 236 271 238 C 272 241 272 243 272 246 C 272 249 272 251 271 253 C 270 256 268 257 266 259 C 264 260 262 261 259 261 Z M 259 258 C 261 258 262 258 263 257 C 264 256 265 254 266 252 C 266 250 267 248 267 246 C 267 244 266 242 266 240 C 265 238 264 236 263 235 C 262 234 261 234 259 234 C 258 234 256 234 255 235 C 254 236 253 238 253 240 C 252 242 252 244 252 246 C 252 248 252 250 253 252 C 253 254 254 256 255 257 C 256 258 258 258 259 258 Z" transform="matrix(1, 0, 0, 1, -9.254956245422363, -40.27720642089844)" style="fill: rgb(255, 255, 255); white-space: pre;"/>
  <circle style="fill: rgb(1, 157, 162);" cx="319" cy="135" r="21" transform="matrix(1, 0, 0, 1.233066, 45.670517, -0.859908)"/>
  <circle style="fill: rgb(1, 157, 162);" cx="149" cy="358" r="21" transform="matrix(1, 0, 0, 1.233066, 111.704193, -107.668884)"/>
</svg>