<?xml version="1.0" encoding="utf-8"?>
<svg viewBox="35 68 379 278" xmlns="http://www.w3.org/2000/svg">
  <defs>
    <clipPath id="clip1">
      <path d="M 109 46 L 268 46 L 268 103 L 109 103 Z M 109 46 "/>
    </clipPath>
    <clipPath id="clip2">
      <path d="M 188.519531 158.164062 L 109.691406 79.335938 L 188.519531 0.507812 L 267.347656 79.335938 Z M 188.519531 158.164062 "/>
    </clipPath>
    <clipPath id="clip3">
      <path d="M 188.519531 158.164062 L 109.691406 79.335938 L 188.519531 0.507812 L 267.347656 79.335938 Z M 188.519531 158.164062 "/>
    </clipPath>
  </defs>
  <rect width="375" height="277" style="fill: rgb(6, 36, 36); fill-opacity: 1; stroke: none;" transform="matrix(1.008691, 0, 0.003567, 1.002761, 34.973694, 67.927094)"/>
  <path style=" stroke:none;fill-rule:nonzero;fill:rgb(83.918762%,37.649536%,28.62854%);fill-opacity:1;" d="M 121.601562 82.488281 C 121.039062 82.488281 120.480469 82.542969 119.929688 82.652344 C 119.375 82.761719 118.839844 82.925781 118.320312 83.140625 C 117.800781 83.355469 117.308594 83.621094 116.839844 83.933594 C 116.371094 84.246094 115.9375 84.601562 115.542969 84.996094 C 115.144531 85.394531 114.789062 85.828125 114.476562 86.296875 C 114.164062 86.765625 113.898438 87.257812 113.683594 87.777344 C 113.46875 88.296875 113.304688 88.832031 113.195312 89.386719 C 113.085938 89.9375 113.03125 90.496094 113.03125 91.058594 C 113.03125 91.621094 113.085938 92.175781 113.195312 92.730469 C 113.304688 93.28125 113.46875 93.816406 113.683594 94.335938 C 113.898438 94.855469 114.164062 95.351562 114.476562 95.816406 C 114.789062 96.285156 115.144531 96.71875 115.542969 97.117188 C 115.9375 97.515625 116.371094 97.871094 116.839844 98.183594 C 117.308594 98.496094 117.800781 98.757812 118.320312 98.972656 C 118.839844 99.191406 119.375 99.351562 119.929688 99.460938 C 120.480469 99.570312 121.039062 99.625 121.601562 99.625 C 122.164062 99.625 122.71875 99.570312 123.273438 99.460938 C 123.824219 99.351562 124.359375 99.191406 124.878906 98.972656 C 125.398438 98.757812 125.894531 98.496094 126.359375 98.183594 C 126.828125 97.871094 127.261719 97.515625 127.660156 97.117188 C 128.058594 96.71875 128.414062 96.285156 128.726562 95.816406 C 129.039062 95.351562 129.300781 94.855469 129.515625 94.335938 C 129.734375 93.816406 129.894531 93.28125 130.003906 92.730469 C 130.113281 92.175781 130.167969 91.621094 130.167969 91.058594 C 130.167969 90.496094 130.113281 89.9375 130.003906 89.386719 C 129.894531 88.832031 129.734375 88.296875 129.515625 87.777344 C 129.300781 87.257812 129.039062 86.765625 128.726562 86.296875 C 128.414062 85.828125 128.058594 85.394531 127.660156 84.996094 C 127.261719 84.601562 126.828125 84.246094 126.359375 83.933594 C 125.894531 83.621094 125.398438 83.355469 124.878906 83.140625 C 124.359375 82.925781 123.824219 82.761719 123.273438 82.652344 C 122.71875 82.542969 122.164062 82.488281 121.601562 82.488281 Z M 121.601562 82.488281 " transform="matrix(1.008691, 0, 0, 1.002761, 35.467506, 56.342319)"/>
  <path style=" stroke:none;fill-rule:nonzero;fill:rgb(83.918762%,37.649536%,28.62854%);fill-opacity:1;" d="M 257.605469 83.738281 C 257.042969 83.738281 256.488281 83.792969 255.9375 83.902344 C 255.382812 84.011719 254.847656 84.175781 254.328125 84.390625 C 253.808594 84.605469 253.3125 84.871094 252.847656 85.183594 C 252.378906 85.496094 251.945312 85.851562 251.546875 86.25 C 251.148438 86.648438 250.792969 87.078125 250.480469 87.546875 C 250.167969 88.015625 249.90625 88.507812 249.691406 89.027344 C 249.476562 89.550781 249.3125 90.085938 249.203125 90.636719 C 249.09375 91.1875 249.039062 91.746094 249.039062 92.308594 C 249.039062 92.871094 249.09375 93.429688 249.203125 93.980469 C 249.3125 94.53125 249.476562 95.066406 249.691406 95.585938 C 249.90625 96.109375 250.167969 96.601562 250.480469 97.070312 C 250.792969 97.535156 251.148438 97.96875 251.546875 98.367188 C 251.945312 98.765625 252.378906 99.121094 252.847656 99.433594 C 253.3125 99.746094 253.808594 100.011719 254.328125 100.226562 C 254.847656 100.441406 255.382812 100.601562 255.9375 100.714844 C 256.488281 100.824219 257.042969 100.878906 257.605469 100.878906 C 258.171875 100.878906 258.726562 100.824219 259.277344 100.714844 C 259.832031 100.601562 260.367188 100.441406 260.886719 100.226562 C 261.40625 100.011719 261.898438 99.746094 262.367188 99.433594 C 262.835938 99.121094 263.269531 98.765625 263.667969 98.367188 C 264.066406 97.96875 264.417969 97.535156 264.734375 97.070312 C 265.046875 96.601562 265.308594 96.109375 265.523438 95.585938 C 265.738281 95.066406 265.902344 94.53125 266.011719 93.980469 C 266.121094 93.429688 266.175781 92.871094 266.175781 92.308594 C 266.175781 91.746094 266.121094 91.1875 266.011719 90.636719 C 265.902344 90.085938 265.738281 89.550781 265.523438 89.027344 C 265.308594 88.507812 265.046875 88.015625 264.734375 87.546875 C 264.417969 87.078125 264.066406 86.648438 263.667969 86.25 C 263.269531 85.851562 262.835938 85.496094 262.367188 85.183594 C 261.898438 84.871094 261.40625 84.605469 260.886719 84.390625 C 260.367188 84.175781 259.832031 84.011719 259.277344 83.902344 C 258.726562 83.792969 258.171875 83.738281 257.605469 83.738281 Z M 257.605469 83.738281 " transform="matrix(1.008691, 0, 0, 1.002761, 35.467506, 56.342319)"/>
  <g clip-rule="nonzero" clip-path="url(#clip1)" transform="matrix(1.008691, 0, 0, 1.002761, 35.467506, 56.342319)">
    <g clip-rule="nonzero" clip-path="url(#clip2)">
      <g clip-rule="nonzero" clip-path="url(#clip3)">
        <path style=" stroke:none;fill-rule:nonzero;fill:rgb(83.918762%,37.649536%,28.62854%);fill-opacity:1;" d="M 133.261719 102.902344 C 163.753906 72.410156 213.289062 72.410156 243.78125 102.902344 L 267.347656 79.335938 C 223.808594 35.792969 153.234375 35.792969 109.691406 79.335938 Z M 133.261719 102.902344 "/>
      </g>
    </g>
  </g>
  <path style="fill:none;stroke-width:1;stroke-linecap:round;stroke-linejoin:miter;stroke:rgb(2.349854%,14.118958%,14.118958%);stroke-opacity:1;stroke-miterlimit:4;" d="M 0.499213 0.00000572636 L 18.44259 -0.000730025 " transform="matrix(-1.39785, -1.569632, 1.57372, -1.385061, 180.002288, 155.126213)"/>
  <path style="fill:none;stroke-width:1;stroke-linecap:round;stroke-linejoin:miter;stroke:rgb(2.349854%,14.118958%,14.118958%);stroke-opacity:1;stroke-miterlimit:4;" d="M 0.500424 0.000354969 L 18.99898 -0.000535305 " transform="matrix(1.443577, -1.51986, 1.528234, 1.434516, 270.884625, 153.864905)"/>
  <path style="fill:none;stroke-width:1;stroke-linecap:round;stroke-linejoin:miter;stroke:rgb(2.349854%,14.118958%,14.118958%);stroke-opacity:1;stroke-miterlimit:4;" d="M 0.499619 0.0000191212 L 17.364792 0.000215432 " transform="matrix(1.23401, -1.71174, 1.708411, 1.217171, 260.900161, 148.562356)"/>
  <path style="fill:none;stroke-width:1;stroke-linecap:round;stroke-linejoin:miter;stroke:rgb(2.349854%,14.118958%,14.118958%);stroke-opacity:1;stroke-miterlimit:4;" d="M 0.500238 -0.000914029 L 19.803798 0.000580951 " transform="matrix(0.963903, -1.880309, 1.872687, 0.948741, 250.740512, 144.559246)"/>
  <path style="fill:none;stroke-width:1;stroke-linecap:round;stroke-linejoin:miter;stroke:rgb(2.349854%,14.118958%,14.118958%);stroke-opacity:1;stroke-miterlimit:4;" d="M 0.500561 -0.000860029 L 18.094823 0.000274437 " transform="matrix(0.414171, -2.037772, 2.06021, 0.413822, 241.976616, 142.393707)"/>
  <path style="fill:none;stroke-width:1;stroke-linecap:round;stroke-linejoin:miter;stroke:rgb(2.349854%,14.118958%,14.118958%);stroke-opacity:1;stroke-miterlimit:4;" d="M 0.499076 -0.000461409 L 19.832252 0.000452586 " transform="matrix(0.131966, -2.103066, 2.097767, 0.130091, 230.320322, 142.180114)"/>
  <path style="fill:none;stroke-width:1;stroke-linecap:round;stroke-linejoin:miter;stroke:rgb(2.349854%,14.118958%,14.118958%);stroke-opacity:1;stroke-miterlimit:4;" d="M 0.500431 -0.00044215 L 16.526214 0.0000974222 " transform="matrix(-1.231602, -1.68964, 1.701975, -1.226049, 188.613639, 147.036281)"/>
  <path style="fill:none;stroke-width:1;stroke-linecap:round;stroke-linejoin:miter;stroke:rgb(2.349854%,14.118958%,14.118958%);stroke-opacity:1;stroke-miterlimit:4;" d="M 0.49965 -0.000164485 L 17.621291 -0.00058935 " transform="matrix(-0.993654, -1.825892, 1.848648, -0.994244, 199.135817, 142.305046)"/>
  <path style="fill:none;stroke-width:1;stroke-linecap:round;stroke-linejoin:miter;stroke:rgb(2.349854%,14.118958%,14.118958%);stroke-opacity:1;stroke-miterlimit:4;" d="M 0.499452 0.000324217 L 16.692852 -0.000281103 " transform="matrix(-0.597765, -1.979415, 2.013082, -0.600805, 208.901693, 139.06008)"/>
  <path style="fill:none;stroke-width:1;stroke-linecap:round;stroke-linejoin:miter;stroke:rgb(2.349854%,14.118958%,14.118958%);stroke-opacity:1;stroke-miterlimit:4;" d="M 0.500122 0.00068622 L 19.78563 0.000791656 " transform="matrix(-0.145888, -2.107039, 2.096882, -0.143483, 219.84578, 142.243092)"/>
  <g style="fill:rgb(98.039246%,94.898987%,91.369629%);fill-opacity:1;" transform="matrix(1.008691, 0, 0, 1.002761, 35.467506, 56.342319)">
    <g transform="translate(122.517483, 158.696544)">
      <path style="stroke:none;" d="M 30.6875 -32.140625 C 30.46875 -28.773438 30.359375 -25.78125 30.359375 -23.15625 C 30.359375 -21.757812 30.40625 -20.664062 30.5 -19.875 L 29.453125 -19.875 C 28.453125 -23.84375 27.164062 -26.703125 25.59375 -28.453125 C 24.019531 -30.210938 22.328125 -31.09375 20.515625 -31.09375 L 20.46875 -31.09375 L 20.46875 -5.125 C 20.46875 -3.851562 20.597656 -2.929688 20.859375 -2.359375 C 21.117188 -1.785156 21.585938 -1.398438 22.265625 -1.203125 C 22.941406 -1.003906 24.023438 -0.90625 25.515625 -0.90625 L 25.515625 0 C 21.242188 -0.09375 17.925781 -0.140625 15.5625 -0.140625 C 13.414062 -0.140625 10.300781 -0.09375 6.21875 0 L 6.21875 -0.90625 C 7.695312 -0.90625 8.773438 -1.003906 9.453125 -1.203125 C 10.140625 -1.398438 10.609375 -1.785156 10.859375 -2.359375 C 11.117188 -2.929688 11.25 -3.851562 11.25 -5.125 L 11.25 -31.09375 L 11.21875 -31.09375 C 9.363281 -31.09375 7.65625 -30.222656 6.09375 -28.484375 C 4.539062 -26.742188 3.265625 -23.875 2.265625 -19.875 L 1.21875 -19.875 C 1.3125 -20.664062 1.359375 -21.757812 1.359375 -23.15625 C 1.359375 -25.78125 1.253906 -28.773438 1.046875 -32.140625 C 3.921875 -32.046875 8.867188 -32 15.890625 -32 C 22.878906 -32 27.8125 -32.046875 30.6875 -32.140625 Z M 30.6875 -32.140625 "/>
    </g>
  </g>
  <g style="fill:rgb(98.039246%,94.898987%,91.369629%);fill-opacity:1;" transform="matrix(1.008691, 0, 0, 1.002761, 35.467506, 56.342319)">
    <g transform="translate(154.246144, 158.696544)">
      <path style="stroke:none;" d="M 6.859375 0.3125 C 4.921875 0.3125 3.457031 -0.207031 2.46875 -1.25 C 1.488281 -2.289062 1 -3.597656 1 -5.171875 C 1 -6.535156 1.351562 -7.660156 2.0625 -8.546875 C 2.769531 -9.441406 3.609375 -10.128906 4.578125 -10.609375 C 5.546875 -11.097656 6.804688 -11.601562 8.359375 -12.125 C 9.984375 -12.664062 11.175781 -13.160156 11.9375 -13.609375 C 12.695312 -14.066406 13.078125 -14.707031 13.078125 -15.53125 L 13.078125 -19.5625 C 13.078125 -20.53125 12.832031 -21.390625 12.34375 -22.140625 C 11.863281 -22.898438 11.03125 -23.28125 9.84375 -23.28125 C 8.90625 -23.28125 8.0625 -23.023438 7.3125 -22.515625 C 8.332031 -22.148438 9.09375 -21.609375 9.59375 -20.890625 C 10.09375 -20.179688 10.34375 -19.390625 10.34375 -18.515625 C 10.34375 -17.335938 9.925781 -16.390625 9.09375 -15.671875 C 8.269531 -14.960938 7.265625 -14.609375 6.078125 -14.609375 C 4.898438 -14.609375 3.96875 -14.976562 3.28125 -15.71875 C 2.601562 -16.46875 2.265625 -17.414062 2.265625 -18.5625 C 2.265625 -19.46875 2.488281 -20.253906 2.9375 -20.921875 C 3.394531 -21.585938 4.109375 -22.191406 5.078125 -22.734375 C 6.773438 -23.703125 9.195312 -24.1875 12.34375 -24.1875 C 14.007812 -24.1875 15.445312 -24.023438 16.65625 -23.703125 C 17.863281 -23.390625 18.894531 -22.796875 19.75 -21.921875 C 20.351562 -21.285156 20.753906 -20.488281 20.953125 -19.53125 C 21.148438 -18.582031 21.25 -17.257812 21.25 -15.5625 L 21.25 -3.40625 C 21.25 -2.644531 21.300781 -2.128906 21.40625 -1.859375 C 21.507812 -1.585938 21.695312 -1.453125 21.96875 -1.453125 C 22.175781 -1.453125 22.398438 -1.519531 22.640625 -1.65625 C 22.890625 -1.789062 23.117188 -1.953125 23.328125 -2.140625 L 23.78125 -1.359375 C 22.476562 -0.242188 20.617188 0.3125 18.203125 0.3125 C 16.390625 0.3125 15.117188 0.00390625 14.390625 -0.609375 C 13.660156 -1.234375 13.265625 -2.070312 13.203125 -3.125 C 11.785156 -0.832031 9.671875 0.3125 6.859375 0.3125 Z M 11.390625 -3.3125 C 12.023438 -3.3125 12.585938 -3.566406 13.078125 -4.078125 L 13.078125 -13.65625 C 12.796875 -13.207031 12.296875 -12.617188 11.578125 -11.890625 C 10.753906 -11.109375 10.128906 -10.34375 9.703125 -9.59375 C 9.285156 -8.851562 9.078125 -7.847656 9.078125 -6.578125 C 9.078125 -4.398438 9.847656 -3.3125 11.390625 -3.3125 Z M 11.390625 -3.3125 "/>
    </g>
  </g>
  <g style="fill:rgb(98.039246%,94.898987%,91.369629%);fill-opacity:1;" transform="matrix(1.008691, 0, 0, 1.002761, 35.467506, 56.342319)">
    <g transform="translate(178.349041, 158.696544)">
      <path style="stroke:none;" d="M 18.875 -24.1875 C 21.300781 -24.1875 23.015625 -23.582031 24.015625 -22.375 C 24.460938 -21.832031 24.789062 -21.097656 25 -20.171875 C 25.21875 -19.253906 25.328125 -18.035156 25.328125 -16.515625 L 25.328125 -4.21875 C 25.328125 -2.976562 25.515625 -2.125 25.890625 -1.65625 C 26.273438 -1.1875 26.9375 -0.953125 27.875 -0.953125 L 27.875 0 C 24.601562 -0.125 22.484375 -0.1875 21.515625 -0.1875 C 20.484375 -0.1875 18.332031 -0.125 15.0625 0 L 15.0625 -0.953125 C 15.851562 -0.953125 16.398438 -1.1875 16.703125 -1.65625 C 17.003906 -2.125 17.15625 -2.976562 17.15625 -4.21875 L 17.15625 -18.96875 C 17.15625 -19.9375 16.976562 -20.65625 16.625 -21.125 C 16.28125 -21.59375 15.71875 -21.828125 14.9375 -21.828125 C 14.050781 -21.828125 13.285156 -21.515625 12.640625 -20.890625 C 11.992188 -20.273438 11.671875 -19.5 11.671875 -18.5625 L 11.671875 -4.21875 C 11.671875 -2.976562 11.820312 -2.125 12.125 -1.65625 C 12.425781 -1.1875 12.96875 -0.953125 13.75 -0.953125 L 13.75 0 C 10.726562 -0.125 8.734375 -0.1875 7.765625 -0.1875 C 6.734375 -0.1875 4.460938 -0.125 0.953125 0 L 0.953125 -0.953125 C 1.890625 -0.953125 2.546875 -1.1875 2.921875 -1.65625 C 3.304688 -2.125 3.5 -2.976562 3.5 -4.21875 L 3.5 -18.609375 C 3.5 -20.003906 3.304688 -21.019531 2.921875 -21.65625 C 2.546875 -22.289062 1.890625 -22.609375 0.953125 -22.609375 L 0.953125 -23.5625 C 1.921875 -23.46875 2.859375 -23.421875 3.765625 -23.421875 C 6.910156 -23.421875 9.546875 -23.632812 11.671875 -24.0625 L 11.671875 -20.78125 C 13.023438 -23.050781 15.425781 -24.1875 18.875 -24.1875 Z M 18.875 -24.1875 "/>
    </g>
  </g>
  <g style="fill:rgb(98.039246%,94.898987%,91.369629%);fill-opacity:1;" transform="matrix(1.008691, 0, 0, 1.002761, 35.467506, 56.342319)">
    <g transform="translate(206.71874, 158.696544)">
      <path style="stroke:none;" d="M 23.421875 -18.96875 C 22.785156 -18.96875 22.234375 -19.1875 21.765625 -19.625 C 21.296875 -20.070312 21.0625 -20.6875 21.0625 -21.46875 C 21.0625 -22.195312 21.273438 -22.984375 21.703125 -23.828125 C 20.367188 -23.285156 19.382812 -22.515625 18.75 -21.515625 C 19.863281 -20.335938 20.421875 -18.8125 20.421875 -16.9375 C 20.421875 -14.539062 19.535156 -12.726562 17.765625 -11.5 C 15.992188 -10.28125 13.628906 -9.671875 10.671875 -9.671875 C 10.085938 -9.671875 9.660156 -9.6875 9.390625 -9.71875 C 8.609375 -9.164062 8.21875 -8.53125 8.21875 -7.8125 C 8.21875 -6.84375 8.757812 -6.359375 9.84375 -6.359375 L 14.25 -6.359375 C 17.332031 -6.359375 19.742188 -5.832031 21.484375 -4.78125 C 23.234375 -3.738281 24.109375 -2.113281 24.109375 0.09375 C 24.109375 1.664062 23.597656 3.085938 22.578125 4.359375 C 21.566406 5.628906 20.007812 6.640625 17.90625 7.390625 C 15.800781 8.148438 13.175781 8.53125 10.03125 8.53125 C 6.914062 8.53125 4.460938 8.179688 2.671875 7.484375 C 0.890625 6.796875 0 5.8125 0 4.53125 C 0 3.65625 0.4375 2.851562 1.3125 2.125 C 2.1875 1.40625 3.519531 0.832031 5.3125 0.40625 L 5.765625 1.140625 C 4.941406 2.128906 4.53125 3.097656 4.53125 4.046875 C 4.53125 5.222656 5.066406 6.132812 6.140625 6.78125 C 7.222656 7.4375 8.734375 7.765625 10.671875 7.765625 C 12.660156 7.765625 14.191406 7.363281 15.265625 6.5625 C 16.347656 5.757812 16.890625 4.691406 16.890625 3.359375 C 16.890625 2.421875 16.53125 1.671875 15.8125 1.109375 C 15.101562 0.546875 13.859375 0.265625 12.078125 0.265625 L 9.625 0.265625 C 7.5625 0.265625 5.984375 -0.125 4.890625 -0.90625 C 3.804688 -1.695312 3.265625 -2.753906 3.265625 -4.078125 C 3.265625 -5.296875 3.695312 -6.359375 4.5625 -7.265625 C 5.425781 -8.171875 6.675781 -9.015625 8.3125 -9.796875 C 6.007812 -10.109375 4.195312 -10.859375 2.875 -12.046875 C 1.5625 -13.242188 0.90625 -14.875 0.90625 -16.9375 C 0.90625 -19.320312 1.789062 -21.125 3.5625 -22.34375 C 5.332031 -23.570312 7.703125 -24.1875 10.671875 -24.1875 C 13.847656 -24.1875 16.296875 -23.523438 18.015625 -22.203125 C 18.585938 -22.984375 19.28125 -23.597656 20.09375 -24.046875 C 20.914062 -24.503906 21.78125 -24.734375 22.6875 -24.734375 C 23.6875 -24.734375 24.457031 -24.453125 25 -23.890625 C 25.550781 -23.335938 25.828125 -22.617188 25.828125 -21.734375 C 25.828125 -20.890625 25.597656 -20.21875 25.140625 -19.71875 C 24.691406 -19.21875 24.117188 -18.96875 23.421875 -18.96875 Z M 10.671875 -10.484375 C 11.273438 -10.484375 11.734375 -10.972656 12.046875 -11.953125 C 12.367188 -12.941406 12.53125 -14.601562 12.53125 -16.9375 C 12.53125 -19.257812 12.367188 -20.910156 12.046875 -21.890625 C 11.734375 -22.878906 11.273438 -23.375 10.671875 -23.375 C 10.066406 -23.375 9.601562 -22.878906 9.28125 -21.890625 C 8.96875 -20.910156 8.8125 -19.257812 8.8125 -16.9375 C 8.8125 -14.601562 8.96875 -12.941406 9.28125 -11.953125 C 9.601562 -10.972656 10.066406 -10.484375 10.671875 -10.484375 Z M 10.671875 -10.484375 "/>
    </g>
  </g>
  <g style="fill:rgb(98.039246%,94.898987%,91.369629%);fill-opacity:1;" transform="matrix(1.008691, 0, 0, 1.002761, 35.467506, 56.342319)">
    <g transform="translate(232.591893, 158.696544)">
      <path style="stroke:none;" d="M 13.078125 -24.1875 C 16.796875 -24.1875 19.664062 -23.210938 21.6875 -21.265625 C 23.71875 -19.316406 24.734375 -16.144531 24.734375 -11.75 C 24.734375 -7.363281 23.71875 -4.203125 21.6875 -2.265625 C 19.664062 -0.328125 16.796875 0.640625 13.078125 0.640625 C 9.347656 0.640625 6.46875 -0.328125 4.4375 -2.265625 C 2.414062 -4.203125 1.40625 -7.363281 1.40625 -11.75 C 1.40625 -16.144531 2.414062 -19.316406 4.4375 -21.265625 C 6.46875 -23.210938 9.347656 -24.1875 13.078125 -24.1875 Z M 13.078125 -23.28125 C 12.109375 -23.28125 11.332031 -22.328125 10.75 -20.421875 C 10.175781 -18.515625 9.890625 -15.625 9.890625 -11.75 C 9.890625 -7.882812 10.175781 -5.003906 10.75 -3.109375 C 11.332031 -1.210938 12.109375 -0.265625 13.078125 -0.265625 C 14.046875 -0.265625 14.816406 -1.210938 15.390625 -3.109375 C 15.960938 -5.003906 16.25 -7.882812 16.25 -11.75 C 16.25 -15.625 15.960938 -18.515625 15.390625 -20.421875 C 14.816406 -22.328125 14.046875 -23.28125 13.078125 -23.28125 Z M 13.078125 -23.28125 "/>
    </g>
  </g>
  <g style="fill:rgb(98.039246%,94.898987%,91.369629%);fill-opacity:1;" transform="matrix(1.008691, 0, 0, 1.002761, 35.467506, 56.342319)">
    <g transform="translate(82.417069, 201.945754)">
      <path style="stroke:none;" d="M 18.203125 -16.84375 C 21.171875 -16.6875 23.613281 -16.210938 25.53125 -15.421875 C 27.457031 -14.640625 28.859375 -13.664062 29.734375 -12.5 C 30.609375 -11.332031 31.046875 -10.101562 31.046875 -8.8125 C 31.046875 -5.84375 29.863281 -3.628906 27.5 -2.171875 C 25.144531 -0.722656 21.789062 0 17.4375 0 C 16.550781 0 15.804688 -0.015625 15.203125 -0.046875 C 13.148438 -0.109375 11.140625 -0.140625 9.171875 -0.140625 C 5.628906 -0.140625 2.992188 -0.09375 1.265625 0 L 1.265625 -0.90625 C 2.234375 -0.96875 2.9375 -1.085938 3.375 -1.265625 C 3.820312 -1.453125 4.117188 -1.800781 4.265625 -2.3125 C 4.421875 -2.832031 4.5 -3.664062 4.5 -4.8125 L 4.5 -27.328125 C 4.5 -28.472656 4.414062 -29.300781 4.25 -29.8125 C 4.082031 -30.332031 3.785156 -30.679688 3.359375 -30.859375 C 2.929688 -31.046875 2.234375 -31.171875 1.265625 -31.234375 L 1.265625 -32.140625 C 2.992188 -32.046875 5.597656 -32 9.078125 -32 L 14.296875 -32.046875 C 14.898438 -32.078125 15.597656 -32.09375 16.390625 -32.09375 C 20.378906 -32.09375 23.425781 -31.445312 25.53125 -30.15625 C 27.632812 -28.875 28.6875 -27.144531 28.6875 -24.96875 C 28.6875 -23.84375 28.289062 -22.710938 27.5 -21.578125 C 26.71875 -20.441406 25.539062 -19.453125 23.96875 -18.609375 C 22.394531 -17.765625 20.472656 -17.207031 18.203125 -16.9375 Z M 16.15625 -31.234375 C 15.457031 -31.234375 14.9375 -31.125 14.59375 -30.90625 C 14.25 -30.695312 14.015625 -30.316406 13.890625 -29.765625 C 13.765625 -29.222656 13.703125 -28.410156 13.703125 -27.328125 L 13.703125 -17.0625 L 14.9375 -17.0625 C 16.570312 -17.0625 17.710938 -17.734375 18.359375 -19.078125 C 19.015625 -20.429688 19.34375 -22.226562 19.34375 -24.46875 C 19.34375 -26.769531 19.09375 -28.472656 18.59375 -29.578125 C 18.09375 -30.679688 17.28125 -31.234375 16.15625 -31.234375 Z M 16.65625 -1.046875 C 19.894531 -1.046875 21.515625 -3.691406 21.515625 -8.984375 C 21.515625 -11.378906 20.9375 -13.195312 19.78125 -14.4375 C 18.632812 -15.675781 16.820312 -16.296875 14.34375 -16.296875 L 13.703125 -16.296875 L 13.703125 -4.8125 C 13.703125 -3.71875 13.773438 -2.914062 13.921875 -2.40625 C 14.078125 -1.894531 14.359375 -1.539062 14.765625 -1.34375 C 15.179688 -1.144531 15.8125 -1.046875 16.65625 -1.046875 Z M 16.65625 -1.046875 "/>
    </g>
  </g>
  <g style="fill:rgb(98.039246%,94.898987%,91.369629%);fill-opacity:1;" transform="matrix(1.008691, 0, 0, 1.002761, 35.467506, 56.342319)">
    <g transform="translate(114.37269, 201.945754)">
      <path style="stroke:none;" d="M 13.078125 -24.1875 C 16.796875 -24.1875 19.664062 -23.210938 21.6875 -21.265625 C 23.71875 -19.316406 24.734375 -16.144531 24.734375 -11.75 C 24.734375 -7.363281 23.71875 -4.203125 21.6875 -2.265625 C 19.664062 -0.328125 16.796875 0.640625 13.078125 0.640625 C 9.347656 0.640625 6.46875 -0.328125 4.4375 -2.265625 C 2.414062 -4.203125 1.40625 -7.363281 1.40625 -11.75 C 1.40625 -16.144531 2.414062 -19.316406 4.4375 -21.265625 C 6.46875 -23.210938 9.347656 -24.1875 13.078125 -24.1875 Z M 13.078125 -23.28125 C 12.109375 -23.28125 11.332031 -22.328125 10.75 -20.421875 C 10.175781 -18.515625 9.890625 -15.625 9.890625 -11.75 C 9.890625 -7.882812 10.175781 -5.003906 10.75 -3.109375 C 11.332031 -1.210938 12.109375 -0.265625 13.078125 -0.265625 C 14.046875 -0.265625 14.816406 -1.210938 15.390625 -3.109375 C 15.960938 -5.003906 16.25 -7.882812 16.25 -11.75 C 16.25 -15.625 15.960938 -18.515625 15.390625 -20.421875 C 14.816406 -22.328125 14.046875 -23.28125 13.078125 -23.28125 Z M 13.078125 -23.28125 "/>
    </g>
  </g>
  <g style="fill:rgb(98.039246%,94.898987%,91.369629%);fill-opacity:1;" transform="matrix(1.008691, 0, 0, 1.002761, 35.467506, 56.342319)">
    <g transform="translate(140.518198, 201.945754)">
      <path style="stroke:none;" d="M 13.078125 -24.1875 C 16.796875 -24.1875 19.664062 -23.210938 21.6875 -21.265625 C 23.71875 -19.316406 24.734375 -16.144531 24.734375 -11.75 C 24.734375 -7.363281 23.71875 -4.203125 21.6875 -2.265625 C 19.664062 -0.328125 16.796875 0.640625 13.078125 0.640625 C 9.347656 0.640625 6.46875 -0.328125 4.4375 -2.265625 C 2.414062 -4.203125 1.40625 -7.363281 1.40625 -11.75 C 1.40625 -16.144531 2.414062 -19.316406 4.4375 -21.265625 C 6.46875 -23.210938 9.347656 -24.1875 13.078125 -24.1875 Z M 13.078125 -23.28125 C 12.109375 -23.28125 11.332031 -22.328125 10.75 -20.421875 C 10.175781 -18.515625 9.890625 -15.625 9.890625 -11.75 C 9.890625 -7.882812 10.175781 -5.003906 10.75 -3.109375 C 11.332031 -1.210938 12.109375 -0.265625 13.078125 -0.265625 C 14.046875 -0.265625 14.816406 -1.210938 15.390625 -3.109375 C 15.960938 -5.003906 16.25 -7.882812 16.25 -11.75 C 16.25 -15.625 15.960938 -18.515625 15.390625 -20.421875 C 14.816406 -22.328125 14.046875 -23.28125 13.078125 -23.28125 Z M 13.078125 -23.28125 "/>
    </g>
  </g>
  <g style="fill:rgb(98.039246%,94.898987%,91.369629%);fill-opacity:1;" transform="matrix(1.008691, 0, 0, 1.002761, 35.467506, 56.342319)">
    <g transform="translate(166.663706, 201.945754)">
      <path style="stroke:none;" d="M 11.4375 -23.5625 L 15.890625 -23.5625 L 15.890625 -22.65625 L 11.4375 -22.65625 L 11.4375 -3.8125 C 11.4375 -3.207031 11.539062 -2.78125 11.75 -2.53125 C 11.96875 -2.289062 12.316406 -2.171875 12.796875 -2.171875 C 13.160156 -2.171875 13.566406 -2.273438 14.015625 -2.484375 C 14.472656 -2.703125 14.882812 -3.039062 15.25 -3.5 L 15.9375 -2.953125 C 14.539062 -0.554688 12.390625 0.640625 9.484375 0.640625 C 7.398438 0.640625 5.84375 0.125 4.8125 -0.90625 C 4.175781 -1.539062 3.757812 -2.328125 3.5625 -3.265625 C 3.363281 -4.203125 3.265625 -5.519531 3.265625 -7.21875 L 3.265625 -22.65625 L -0.1875 -22.65625 L -0.1875 -23.5625 L 3.265625 -23.5625 L 3.265625 -28.90625 C 4.898438 -28.90625 6.375 -29.0625 7.6875 -29.375 C 9.007812 -29.695312 10.257812 -30.207031 11.4375 -30.90625 Z M 11.4375 -23.5625 "/>
    </g>
  </g>
  <g style="fill:rgb(98.039246%,94.898987%,91.369629%);fill-opacity:1;" transform="matrix(1.008691, 0, 0, 1.002761, 35.467506, 56.342319)">
    <g transform="translate(182.550735, 201.945754)">
      <path style="stroke:none;" d="M 13.03125 -24.1875 C 14.269531 -24.1875 15.410156 -24.054688 16.453125 -23.796875 C 17.492188 -23.546875 18.347656 -23.222656 19.015625 -22.828125 C 19.867188 -22.347656 20.535156 -21.695312 21.015625 -20.875 C 21.492188 -20.0625 21.734375 -19.140625 21.734375 -18.109375 C 21.734375 -16.835938 21.328125 -15.785156 20.515625 -14.953125 C 19.703125 -14.117188 18.660156 -13.703125 17.390625 -13.703125 C 16.085938 -13.703125 15.0625 -14.070312 14.3125 -14.8125 C 13.570312 -15.5625 13.203125 -16.554688 13.203125 -17.796875 C 13.203125 -18.878906 13.554688 -19.835938 14.265625 -20.671875 C 14.984375 -21.503906 15.875 -22.054688 16.9375 -22.328125 C 16.476562 -22.691406 15.867188 -22.875 15.109375 -22.875 C 13.171875 -22.875 11.804688 -21.835938 11.015625 -19.765625 C 10.234375 -17.691406 9.84375 -15.234375 9.84375 -12.390625 C 9.84375 -9.484375 10.390625 -7.410156 11.484375 -6.171875 C 12.578125 -4.929688 13.925781 -4.3125 15.53125 -4.3125 C 17.738281 -4.3125 19.566406 -5.328125 21.015625 -7.359375 L 21.78125 -7.078125 C 21.113281 -4.960938 19.984375 -3.144531 18.390625 -1.625 C 16.804688 -0.113281 14.773438 0.640625 12.296875 0.640625 C 9.003906 0.640625 6.359375 -0.34375 4.359375 -2.3125 C 2.359375 -4.28125 1.359375 -7.425781 1.359375 -11.75 C 1.359375 -15.894531 2.425781 -19.003906 4.5625 -21.078125 C 6.695312 -23.148438 9.519531 -24.1875 13.03125 -24.1875 Z M 13.03125 -24.1875 "/>
    </g>
  </g>
  <g style="fill:rgb(98.039246%,94.898987%,91.369629%);fill-opacity:1;" transform="matrix(1.008691, 0, 0, 1.002761, 35.467506, 56.342319)">
    <g transform="translate(205.382662, 201.945754)">
      <path style="stroke:none;" d="M 6.859375 0.3125 C 4.921875 0.3125 3.457031 -0.207031 2.46875 -1.25 C 1.488281 -2.289062 1 -3.597656 1 -5.171875 C 1 -6.535156 1.351562 -7.660156 2.0625 -8.546875 C 2.769531 -9.441406 3.609375 -10.128906 4.578125 -10.609375 C 5.546875 -11.097656 6.804688 -11.601562 8.359375 -12.125 C 9.984375 -12.664062 11.175781 -13.160156 11.9375 -13.609375 C 12.695312 -14.066406 13.078125 -14.707031 13.078125 -15.53125 L 13.078125 -19.5625 C 13.078125 -20.53125 12.832031 -21.390625 12.34375 -22.140625 C 11.863281 -22.898438 11.03125 -23.28125 9.84375 -23.28125 C 8.90625 -23.28125 8.0625 -23.023438 7.3125 -22.515625 C 8.332031 -22.148438 9.09375 -21.609375 9.59375 -20.890625 C 10.09375 -20.179688 10.34375 -19.390625 10.34375 -18.515625 C 10.34375 -17.335938 9.925781 -16.390625 9.09375 -15.671875 C 8.269531 -14.960938 7.265625 -14.609375 6.078125 -14.609375 C 4.898438 -14.609375 3.96875 -14.976562 3.28125 -15.71875 C 2.601562 -16.46875 2.265625 -17.414062 2.265625 -18.5625 C 2.265625 -19.46875 2.488281 -20.253906 2.9375 -20.921875 C 3.394531 -21.585938 4.109375 -22.191406 5.078125 -22.734375 C 6.773438 -23.703125 9.195312 -24.1875 12.34375 -24.1875 C 14.007812 -24.1875 15.445312 -24.023438 16.65625 -23.703125 C 17.863281 -23.390625 18.894531 -22.796875 19.75 -21.921875 C 20.351562 -21.285156 20.753906 -20.488281 20.953125 -19.53125 C 21.148438 -18.582031 21.25 -17.257812 21.25 -15.5625 L 21.25 -3.40625 C 21.25 -2.644531 21.300781 -2.128906 21.40625 -1.859375 C 21.507812 -1.585938 21.695312 -1.453125 21.96875 -1.453125 C 22.175781 -1.453125 22.398438 -1.519531 22.640625 -1.65625 C 22.890625 -1.789062 23.117188 -1.953125 23.328125 -2.140625 L 23.78125 -1.359375 C 22.476562 -0.242188 20.617188 0.3125 18.203125 0.3125 C 16.390625 0.3125 15.117188 0.00390625 14.390625 -0.609375 C 13.660156 -1.234375 13.265625 -2.070312 13.203125 -3.125 C 11.785156 -0.832031 9.671875 0.3125 6.859375 0.3125 Z M 11.390625 -3.3125 C 12.023438 -3.3125 12.585938 -3.566406 13.078125 -4.078125 L 13.078125 -13.65625 C 12.796875 -13.207031 12.296875 -12.617188 11.578125 -11.890625 C 10.753906 -11.109375 10.128906 -10.34375 9.703125 -9.59375 C 9.285156 -8.851562 9.078125 -7.847656 9.078125 -6.578125 C 9.078125 -4.398438 9.847656 -3.3125 11.390625 -3.3125 Z M 11.390625 -3.3125 "/>
    </g>
  </g>
  <g style="fill:rgb(98.039246%,94.898987%,91.369629%);fill-opacity:1;" transform="matrix(1.008691, 0, 0, 1.002761, 35.467506, 56.342319)">
    <g transform="translate(229.485558, 201.945754)">
      <path style="stroke:none;" d="M 38.53125 -4.21875 C 38.53125 -2.976562 38.71875 -2.125 39.09375 -1.65625 C 39.476562 -1.1875 40.140625 -0.953125 41.078125 -0.953125 L 41.078125 0 C 37.804688 -0.125 35.6875 -0.1875 34.71875 -0.1875 C 33.75 -0.1875 31.753906 -0.125 28.734375 0 L 28.734375 -0.953125 C 29.335938 -0.953125 29.757812 -1.175781 30 -1.625 C 30.238281 -2.082031 30.359375 -2.945312 30.359375 -4.21875 L 30.359375 -18.96875 C 30.359375 -19.9375 30.1875 -20.65625 29.84375 -21.125 C 29.5 -21.59375 28.929688 -21.828125 28.140625 -21.828125 C 27.359375 -21.828125 26.640625 -21.492188 25.984375 -20.828125 C 25.335938 -20.160156 24.9375 -19.375 24.78125 -18.46875 C 24.84375 -17.75 24.875 -17.097656 24.875 -16.515625 L 24.875 -4.21875 C 24.875 -2.945312 25.023438 -2.082031 25.328125 -1.625 C 25.628906 -1.175781 26.175781 -0.953125 26.96875 -0.953125 L 26.96875 0 C 23.9375 -0.125 21.96875 -0.1875 21.0625 -0.1875 C 20.09375 -0.1875 18.09375 -0.125 15.0625 0 L 15.0625 -0.953125 C 15.675781 -0.953125 16.101562 -1.1875 16.34375 -1.65625 C 16.582031 -2.125 16.703125 -2.976562 16.703125 -4.21875 L 16.703125 -18.96875 C 16.703125 -19.9375 16.566406 -20.65625 16.296875 -21.125 C 16.023438 -21.59375 15.570312 -21.828125 14.9375 -21.828125 C 14.050781 -21.828125 13.285156 -21.515625 12.640625 -20.890625 C 11.992188 -20.273438 11.671875 -19.5 11.671875 -18.5625 L 11.671875 -4.21875 C 11.671875 -2.945312 11.789062 -2.082031 12.03125 -1.625 C 12.269531 -1.175781 12.691406 -0.953125 13.296875 -0.953125 L 13.296875 0 C 10.515625 -0.125 8.671875 -0.1875 7.765625 -0.1875 C 6.734375 -0.1875 4.460938 -0.125 0.953125 0 L 0.953125 -0.953125 C 1.890625 -0.953125 2.546875 -1.1875 2.921875 -1.65625 C 3.304688 -2.125 3.5 -2.976562 3.5 -4.21875 L 3.5 -18.609375 C 3.5 -20.003906 3.304688 -21.019531 2.921875 -21.65625 C 2.546875 -22.289062 1.890625 -22.609375 0.953125 -22.609375 L 0.953125 -23.5625 C 1.921875 -23.46875 2.859375 -23.421875 3.765625 -23.421875 C 6.910156 -23.421875 9.546875 -23.632812 11.671875 -24.0625 L 11.671875 -20.78125 C 12.941406 -23.050781 15.191406 -24.1875 18.421875 -24.1875 C 20.847656 -24.1875 22.5625 -23.582031 23.5625 -22.375 C 24.007812 -21.832031 24.34375 -21.125 24.5625 -20.25 C 25.3125 -21.695312 26.3125 -22.710938 27.5625 -23.296875 C 28.820312 -23.890625 30.332031 -24.1875 32.09375 -24.1875 C 34.507812 -24.1875 36.21875 -23.582031 37.21875 -22.375 C 37.675781 -21.832031 38.007812 -21.097656 38.21875 -20.171875 C 38.425781 -19.253906 38.53125 -18.035156 38.53125 -16.515625 Z M 38.53125 -4.21875 "/>
    </g>
  </g>
  <g style="fill:rgb(98.039246%,94.898987%,91.369629%);fill-opacity:1;" transform="matrix(1.008691, 0, 0, 1.002761, 35.467506, 56.342319)">
    <g transform="translate(271.064175, 201.945754)">
      <path style="stroke:none;" d="M 18.421875 -24.1875 C 20.785156 -24.1875 22.691406 -23.21875 24.140625 -21.28125 C 25.597656 -19.351562 26.328125 -16.523438 26.328125 -12.796875 C 26.328125 -7.984375 25.359375 -4.539062 23.421875 -2.46875 C 21.484375 -0.394531 18.925781 0.640625 15.75 0.640625 C 14 0.640625 12.59375 0.347656 11.53125 -0.234375 L 11.53125 3.546875 C 11.53125 4.929688 11.851562 5.894531 12.5 6.4375 C 13.15625 6.988281 14.132812 7.265625 15.4375 7.265625 L 15.4375 8.21875 L 14.109375 8.171875 C 10.484375 8.078125 8.140625 8.03125 7.078125 8.03125 C 6.171875 8.03125 4.082031 8.09375 0.8125 8.21875 L 0.8125 7.265625 C 1.75 7.265625 2.40625 7.03125 2.78125 6.5625 C 3.164062 6.09375 3.359375 5.238281 3.359375 4 L 3.359375 -18.5625 C 3.359375 -19.957031 3.164062 -20.972656 2.78125 -21.609375 C 2.40625 -22.242188 1.75 -22.5625 0.8125 -22.5625 L 0.8125 -23.515625 C 1.75 -23.421875 2.6875 -23.375 3.625 -23.375 C 6.78125 -23.375 9.414062 -23.585938 11.53125 -24.015625 L 11.53125 -20.78125 C 12.914062 -23.050781 15.210938 -24.1875 18.421875 -24.1875 Z M 13.125 -0.71875 C 14.78125 -0.71875 15.976562 -1.617188 16.71875 -3.421875 C 17.46875 -5.222656 17.84375 -8 17.84375 -11.75 C 17.84375 -15.476562 17.566406 -18.085938 17.015625 -19.578125 C 16.472656 -21.078125 15.734375 -21.828125 14.796875 -21.828125 C 13.921875 -21.828125 13.15625 -21.515625 12.5 -20.890625 C 11.851562 -20.273438 11.53125 -19.5 11.53125 -18.5625 L 11.53125 -1.09375 C 11.925781 -0.84375 12.457031 -0.71875 13.125 -0.71875 Z M 13.125 -0.71875 "/>
    </g>
  </g>
  <g style="fill:rgb(98.039246%,94.898987%,91.369629%);fill-opacity:1;" transform="matrix(1.008691, 0, 0, 1.002761, 35.467506, 56.342319)">
    <g transform="translate(62.251517, 239.115595)">
      <path style="stroke:none;" d="M 0.1875 -12.796875 L 1.921875 -12.796875 L 3.875 -3.953125 C 3.957031 -3.640625 4.035156 -3.222656 4.109375 -2.703125 C 4.191406 -2.179688 4.242188 -1.835938 4.265625 -1.671875 L 4.34375 -1.671875 C 4.351562 -1.816406 4.382812 -2.097656 4.4375 -2.515625 C 4.5 -2.929688 4.578125 -3.410156 4.671875 -3.953125 L 6.140625 -12.796875 L 8.40625 -12.796875 L 10 -3.953125 C 10.070312 -3.566406 10.140625 -3.128906 10.203125 -2.640625 C 10.273438 -2.148438 10.316406 -1.828125 10.328125 -1.671875 L 10.40625 -1.671875 C 10.4375 -1.835938 10.488281 -2.171875 10.5625 -2.671875 C 10.644531 -3.179688 10.722656 -3.609375 10.796875 -3.953125 L 12.765625 -12.796875 L 14.25 -12.796875 L 11.28125 0 L 9.15625 0 L 7.59375 -8.671875 C 7.53125 -9.035156 7.460938 -9.507812 7.390625 -10.09375 C 7.316406 -10.675781 7.265625 -11.0625 7.234375 -11.25 L 7.15625 -11.25 C 7.132812 -11.0625 7.085938 -10.675781 7.015625 -10.09375 C 6.941406 -9.507812 6.875 -9.035156 6.8125 -8.671875 L 5.28125 0 L 3.15625 0 Z M 0.1875 -12.796875 "/>
    </g>
  </g>
  <g style="fill:rgb(98.039246%,94.898987%,91.369629%);fill-opacity:1;" transform="matrix(1.008691, 0, 0, 1.002761, 35.467506, 56.342319)">
    <g transform="translate(78.309384, 239.115595)">
      <path style="stroke:none;" d="M 0.1875 -12.796875 L 1.921875 -12.796875 L 3.875 -3.953125 C 3.957031 -3.640625 4.035156 -3.222656 4.109375 -2.703125 C 4.191406 -2.179688 4.242188 -1.835938 4.265625 -1.671875 L 4.34375 -1.671875 C 4.351562 -1.816406 4.382812 -2.097656 4.4375 -2.515625 C 4.5 -2.929688 4.578125 -3.410156 4.671875 -3.953125 L 6.140625 -12.796875 L 8.40625 -12.796875 L 10 -3.953125 C 10.070312 -3.566406 10.140625 -3.128906 10.203125 -2.640625 C 10.273438 -2.148438 10.316406 -1.828125 10.328125 -1.671875 L 10.40625 -1.671875 C 10.4375 -1.835938 10.488281 -2.171875 10.5625 -2.671875 C 10.644531 -3.179688 10.722656 -3.609375 10.796875 -3.953125 L 12.765625 -12.796875 L 14.25 -12.796875 L 11.28125 0 L 9.15625 0 L 7.59375 -8.671875 C 7.53125 -9.035156 7.460938 -9.507812 7.390625 -10.09375 C 7.316406 -10.675781 7.265625 -11.0625 7.234375 -11.25 L 7.15625 -11.25 C 7.132812 -11.0625 7.085938 -10.675781 7.015625 -10.09375 C 6.941406 -9.507812 6.875 -9.035156 6.8125 -8.671875 L 5.28125 0 L 3.15625 0 Z M 0.1875 -12.796875 "/>
    </g>
  </g>
  <g style="fill:rgb(98.039246%,94.898987%,91.369629%);fill-opacity:1;" transform="matrix(1.008691, 0, 0, 1.002761, 35.467506, 56.342319)">
    <g transform="translate(94.367252, 239.115595)">
      <path style="stroke:none;" d="M 0.1875 -12.796875 L 1.921875 -12.796875 L 3.875 -3.953125 C 3.957031 -3.640625 4.035156 -3.222656 4.109375 -2.703125 C 4.191406 -2.179688 4.242188 -1.835938 4.265625 -1.671875 L 4.34375 -1.671875 C 4.351562 -1.816406 4.382812 -2.097656 4.4375 -2.515625 C 4.5 -2.929688 4.578125 -3.410156 4.671875 -3.953125 L 6.140625 -12.796875 L 8.40625 -12.796875 L 10 -3.953125 C 10.070312 -3.566406 10.140625 -3.128906 10.203125 -2.640625 C 10.273438 -2.148438 10.316406 -1.828125 10.328125 -1.671875 L 10.40625 -1.671875 C 10.4375 -1.835938 10.488281 -2.171875 10.5625 -2.671875 C 10.644531 -3.179688 10.722656 -3.609375 10.796875 -3.953125 L 12.765625 -12.796875 L 14.25 -12.796875 L 11.28125 0 L 9.15625 0 L 7.59375 -8.671875 C 7.53125 -9.035156 7.460938 -9.507812 7.390625 -10.09375 C 7.316406 -10.675781 7.265625 -11.0625 7.234375 -11.25 L 7.15625 -11.25 C 7.132812 -11.0625 7.085938 -10.675781 7.015625 -10.09375 C 6.941406 -9.507812 6.875 -9.035156 6.8125 -8.671875 L 5.28125 0 L 3.15625 0 Z M 0.1875 -12.796875 "/>
    </g>
  </g>
  <g style="fill:rgb(98.039246%,94.898987%,91.369629%);fill-opacity:1;" transform="matrix(1.008691, 0, 0, 1.002761, 35.467506, 56.342319)">
    <g transform="translate(110.425121, 239.115595)">
      <path style="stroke:none;" d="M 1.1875 -2.015625 L 3.0625 -2.015625 L 3.0625 0 L 1.1875 0 Z M 1.1875 -2.015625 "/>
    </g>
  </g>
  <g style="fill:rgb(98.039246%,94.898987%,91.369629%);fill-opacity:1;" transform="matrix(1.008691, 0, 0, 1.002761, 35.467506, 56.342319)">
    <g transform="translate(116.30102, 239.115595)">
      <path style="stroke:none;" d="M 3.84375 -11.3125 L 0.359375 -11.3125 L 0.359375 -12.796875 L 8.96875 -12.796875 L 8.96875 -11.3125 L 5.484375 -11.3125 L 5.484375 0 L 3.84375 0 Z M 3.84375 -11.3125 "/>
    </g>
  </g>
  <g style="fill:rgb(98.039246%,94.898987%,91.369629%);fill-opacity:1;" transform="matrix(1.008691, 0, 0, 1.002761, 35.467506, 56.342319)">
    <g transform="translate(127.267904, 239.115595)">
      <path style="stroke:none;" d="M 4.046875 -12.796875 L 6.15625 -12.796875 L 10.21875 0 L 8.453125 0 L 7.578125 -2.859375 L 2.5 -2.859375 L 1.625 0 L -0.015625 0 Z M 7.109375 -4.34375 L 5.375 -10.03125 C 5.320312 -10.207031 5.257812 -10.457031 5.1875 -10.78125 C 5.125 -11.113281 5.085938 -11.335938 5.078125 -11.453125 L 5 -11.453125 C 4.988281 -11.335938 4.945312 -11.113281 4.875 -10.78125 C 4.8125 -10.457031 4.753906 -10.207031 4.703125 -10.03125 L 2.953125 -4.34375 Z M 7.109375 -4.34375 "/>
    </g>
  </g>
  <g style="fill:rgb(98.039246%,94.898987%,91.369629%);fill-opacity:1;" transform="matrix(1.008691, 0, 0, 1.002761, 35.467506, 56.342319)">
    <g transform="translate(139.092596, 239.115595)">
      <path style="stroke:none;" d="M 1.3125 -12.796875 L 2.71875 -12.796875 L 7.484375 -4.75 C 7.597656 -4.550781 7.742188 -4.25 7.921875 -3.84375 C 8.097656 -3.445312 8.210938 -3.179688 8.265625 -3.046875 L 8.328125 -3.0625 C 8.328125 -3.195312 8.316406 -3.4375 8.296875 -3.78125 C 8.273438 -4.132812 8.265625 -4.457031 8.265625 -4.75 L 8.265625 -12.796875 L 9.734375 -12.796875 L 9.734375 0 L 8.375 0 L 3.578125 -8.15625 C 3.441406 -8.375 3.28125 -8.679688 3.09375 -9.078125 C 2.914062 -9.484375 2.804688 -9.75 2.765625 -9.875 L 2.703125 -9.84375 C 2.710938 -9.71875 2.726562 -9.484375 2.75 -9.140625 C 2.769531 -8.804688 2.78125 -8.476562 2.78125 -8.15625 L 2.78125 0 L 1.3125 0 Z M 1.3125 -12.796875 "/>
    </g>
  </g>
  <g style="fill:rgb(98.039246%,94.898987%,91.369629%);fill-opacity:1;" transform="matrix(1.008691, 0, 0, 1.002761, 35.467506, 56.342319)">
    <g transform="translate(151.756467, 239.115595)">
      <path style="stroke:none;" d="M 5.6875 -6.65625 L 10.6875 -6.65625 L 10.6875 0 L 9.609375 0 L 9.25 -1.421875 C 8.507812 -0.328125 7.410156 0.21875 5.953125 0.21875 C 4.316406 0.21875 3.066406 -0.332031 2.203125 -1.4375 C 1.347656 -2.539062 0.921875 -4.195312 0.921875 -6.40625 C 0.921875 -8.570312 1.363281 -10.210938 2.25 -11.328125 C 3.144531 -12.453125 4.410156 -13.015625 6.046875 -13.015625 C 7.441406 -13.015625 8.5625 -12.625 9.40625 -11.84375 C 10.257812 -11.0625 10.6875 -9.925781 10.6875 -8.4375 L 9.015625 -8.4375 C 9.015625 -9.46875 8.75 -10.238281 8.21875 -10.75 C 7.6875 -11.257812 6.960938 -11.515625 6.046875 -11.515625 C 4.960938 -11.515625 4.117188 -11.117188 3.515625 -10.328125 C 2.921875 -9.546875 2.625 -8.390625 2.625 -6.859375 L 2.625 -5.9375 C 2.625 -4.394531 2.90625 -3.234375 3.46875 -2.453125 C 4.039062 -1.671875 4.867188 -1.28125 5.953125 -1.28125 C 7.003906 -1.28125 7.773438 -1.578125 8.265625 -2.171875 C 8.765625 -2.773438 9.015625 -3.691406 9.015625 -4.921875 L 9.015625 -5.21875 L 5.6875 -5.21875 Z M 5.6875 -6.65625 "/>
    </g>
  </g>
  <g style="fill:rgb(98.039246%,94.898987%,91.369629%);fill-opacity:1;" transform="matrix(1.008691, 0, 0, 1.002761, 35.467506, 56.342319)">
    <g transform="translate(165.278164, 239.115595)">
      <path style="stroke:none;" d="M 5.953125 0.21875 C 4.359375 0.21875 3.117188 -0.335938 2.234375 -1.453125 C 1.359375 -2.578125 0.921875 -4.226562 0.921875 -6.40625 C 0.921875 -8.570312 1.359375 -10.210938 2.234375 -11.328125 C 3.117188 -12.453125 4.359375 -13.015625 5.953125 -13.015625 C 7.546875 -13.015625 8.78125 -12.453125 9.65625 -11.328125 C 10.539062 -10.210938 10.984375 -8.570312 10.984375 -6.40625 C 10.984375 -4.226562 10.539062 -2.578125 9.65625 -1.453125 C 8.78125 -0.335938 7.546875 0.21875 5.953125 0.21875 Z M 5.953125 -1.28125 C 6.992188 -1.28125 7.804688 -1.671875 8.390625 -2.453125 C 8.972656 -3.242188 9.265625 -4.40625 9.265625 -5.9375 L 9.265625 -6.859375 C 9.265625 -8.390625 8.972656 -9.546875 8.390625 -10.328125 C 7.804688 -11.117188 6.992188 -11.515625 5.953125 -11.515625 C 4.910156 -11.515625 4.09375 -11.117188 3.5 -10.328125 C 2.914062 -9.546875 2.625 -8.390625 2.625 -6.859375 L 2.625 -5.9375 C 2.625 -4.40625 2.914062 -3.242188 3.5 -2.453125 C 4.09375 -1.671875 4.910156 -1.28125 5.953125 -1.28125 Z M 5.953125 -1.28125 "/>
    </g>
  </g>
  <g style="fill:rgb(98.039246%,94.898987%,91.369629%);fill-opacity:1;" transform="matrix(1.008691, 0, 0, 1.002761, 35.467506, 56.342319)">
    <g transform="translate(178.79986, 239.115595)">
      <path style="stroke:none;" d="M 1.21875 -12.796875 L 6.0625 -12.796875 C 7.019531 -12.796875 7.804688 -12.503906 8.421875 -11.921875 C 9.046875 -11.347656 9.359375 -10.59375 9.359375 -9.65625 C 9.359375 -8.945312 9.175781 -8.328125 8.8125 -7.796875 C 8.445312 -7.273438 7.976562 -6.914062 7.40625 -6.71875 L 7.40625 -6.640625 C 8.0625 -6.441406 8.597656 -6.050781 9.015625 -5.46875 C 9.441406 -4.882812 9.65625 -4.191406 9.65625 -3.390625 C 9.65625 -2.691406 9.492188 -2.085938 9.171875 -1.578125 C 8.847656 -1.078125 8.410156 -0.6875 7.859375 -0.40625 C 7.316406 -0.132812 6.71875 0 6.0625 0 L 1.21875 0 Z M 5.578125 -7.296875 C 6.191406 -7.296875 6.691406 -7.488281 7.078125 -7.875 C 7.460938 -8.269531 7.65625 -8.75 7.65625 -9.3125 C 7.65625 -9.96875 7.476562 -10.460938 7.125 -10.796875 C 6.78125 -11.140625 6.300781 -11.3125 5.6875 -11.3125 L 2.859375 -11.3125 L 2.859375 -7.296875 Z M 5.84375 -1.5 C 6.457031 -1.5 6.960938 -1.679688 7.359375 -2.046875 C 7.753906 -2.421875 7.953125 -2.945312 7.953125 -3.625 C 7.953125 -4.21875 7.742188 -4.726562 7.328125 -5.15625 C 6.921875 -5.582031 6.390625 -5.796875 5.734375 -5.796875 L 2.859375 -5.796875 L 2.859375 -1.5 Z M 5.84375 -1.5 "/>
    </g>
  </g>
  <g style="fill:rgb(98.039246%,94.898987%,91.369629%);fill-opacity:1;" transform="matrix(1.008691, 0, 0, 1.002761, 35.467506, 56.342319)">
    <g transform="translate(190.624552, 239.115595)">
      <path style="stroke:none;" d="M 5.953125 0.21875 C 4.359375 0.21875 3.117188 -0.335938 2.234375 -1.453125 C 1.359375 -2.578125 0.921875 -4.226562 0.921875 -6.40625 C 0.921875 -8.570312 1.359375 -10.210938 2.234375 -11.328125 C 3.117188 -12.453125 4.359375 -13.015625 5.953125 -13.015625 C 7.546875 -13.015625 8.78125 -12.453125 9.65625 -11.328125 C 10.539062 -10.210938 10.984375 -8.570312 10.984375 -6.40625 C 10.984375 -4.226562 10.539062 -2.578125 9.65625 -1.453125 C 8.78125 -0.335938 7.546875 0.21875 5.953125 0.21875 Z M 5.953125 -1.28125 C 6.992188 -1.28125 7.804688 -1.671875 8.390625 -2.453125 C 8.972656 -3.242188 9.265625 -4.40625 9.265625 -5.9375 L 9.265625 -6.859375 C 9.265625 -8.390625 8.972656 -9.546875 8.390625 -10.328125 C 7.804688 -11.117188 6.992188 -11.515625 5.953125 -11.515625 C 4.910156 -11.515625 4.09375 -11.117188 3.5 -10.328125 C 2.914062 -9.546875 2.625 -8.390625 2.625 -6.859375 L 2.625 -5.9375 C 2.625 -4.40625 2.914062 -3.242188 3.5 -2.453125 C 4.09375 -1.671875 4.910156 -1.28125 5.953125 -1.28125 Z M 5.953125 -1.28125 "/>
    </g>
  </g>
  <g style="fill:rgb(98.039246%,94.898987%,91.369629%);fill-opacity:1;" transform="matrix(1.008691, 0, 0, 1.002761, 35.467506, 56.342319)">
    <g transform="translate(204.146249, 239.115595)">
      <path style="stroke:none;" d="M 5.953125 0.21875 C 4.359375 0.21875 3.117188 -0.335938 2.234375 -1.453125 C 1.359375 -2.578125 0.921875 -4.226562 0.921875 -6.40625 C 0.921875 -8.570312 1.359375 -10.210938 2.234375 -11.328125 C 3.117188 -12.453125 4.359375 -13.015625 5.953125 -13.015625 C 7.546875 -13.015625 8.78125 -12.453125 9.65625 -11.328125 C 10.539062 -10.210938 10.984375 -8.570312 10.984375 -6.40625 C 10.984375 -4.226562 10.539062 -2.578125 9.65625 -1.453125 C 8.78125 -0.335938 7.546875 0.21875 5.953125 0.21875 Z M 5.953125 -1.28125 C 6.992188 -1.28125 7.804688 -1.671875 8.390625 -2.453125 C 8.972656 -3.242188 9.265625 -4.40625 9.265625 -5.9375 L 9.265625 -6.859375 C 9.265625 -8.390625 8.972656 -9.546875 8.390625 -10.328125 C 7.804688 -11.117188 6.992188 -11.515625 5.953125 -11.515625 C 4.910156 -11.515625 4.09375 -11.117188 3.5 -10.328125 C 2.914062 -9.546875 2.625 -8.390625 2.625 -6.859375 L 2.625 -5.9375 C 2.625 -4.40625 2.914062 -3.242188 3.5 -2.453125 C 4.09375 -1.671875 4.910156 -1.28125 5.953125 -1.28125 Z M 5.953125 -1.28125 "/>
    </g>
  </g>
  <g style="fill:rgb(98.039246%,94.898987%,91.369629%);fill-opacity:1;" transform="matrix(1.008691, 0, 0, 1.002761, 35.467506, 56.342319)">
    <g transform="translate(217.667945, 239.115595)">
      <path style="stroke:none;" d="M 3.84375 -11.3125 L 0.359375 -11.3125 L 0.359375 -12.796875 L 8.96875 -12.796875 L 8.96875 -11.3125 L 5.484375 -11.3125 L 5.484375 0 L 3.84375 0 Z M 3.84375 -11.3125 "/>
    </g>
  </g>
  <g style="fill:rgb(98.039246%,94.898987%,91.369629%);fill-opacity:1;" transform="matrix(1.008691, 0, 0, 1.002761, 35.467506, 56.342319)">
    <g transform="translate(228.634826, 239.115595)">
      <path style="stroke:none;" d="M 5.828125 0.21875 C 2.460938 0.21875 0.78125 -1.988281 0.78125 -6.40625 C 0.78125 -10.8125 2.460938 -13.015625 5.828125 -13.015625 C 7.179688 -13.015625 8.257812 -12.601562 9.0625 -11.78125 C 9.875 -10.957031 10.28125 -9.753906 10.28125 -8.171875 L 8.59375 -8.171875 C 8.59375 -9.265625 8.34375 -10.09375 7.84375 -10.65625 C 7.351562 -11.226562 6.679688 -11.515625 5.828125 -11.515625 C 4.703125 -11.515625 3.863281 -11.128906 3.3125 -10.359375 C 2.769531 -9.585938 2.5 -8.421875 2.5 -6.859375 L 2.5 -5.9375 C 2.5 -4.375 2.769531 -3.207031 3.3125 -2.4375 C 3.863281 -1.664062 4.703125 -1.28125 5.828125 -1.28125 C 6.703125 -1.28125 7.390625 -1.5625 7.890625 -2.125 C 8.398438 -2.6875 8.65625 -3.507812 8.65625 -4.59375 L 10.28125 -4.59375 C 10.28125 -3 9.878906 -1.796875 9.078125 -0.984375 C 8.273438 -0.179688 7.191406 0.21875 5.828125 0.21875 Z M 5.828125 0.21875 "/>
    </g>
  </g>
  <g style="fill:rgb(98.039246%,94.898987%,91.369629%);fill-opacity:1;" transform="matrix(1.008691, 0, 0, 1.002761, 35.467506, 56.342319)">
    <g transform="translate(241.298697, 239.115595)">
      <path style="stroke:none;" d="M 4.046875 -12.796875 L 6.15625 -12.796875 L 10.21875 0 L 8.453125 0 L 7.578125 -2.859375 L 2.5 -2.859375 L 1.625 0 L -0.015625 0 Z M 7.109375 -4.34375 L 5.375 -10.03125 C 5.320312 -10.207031 5.257812 -10.457031 5.1875 -10.78125 C 5.125 -11.113281 5.085938 -11.335938 5.078125 -11.453125 L 5 -11.453125 C 4.988281 -11.335938 4.945312 -11.113281 4.875 -10.78125 C 4.8125 -10.457031 4.753906 -10.207031 4.703125 -10.03125 L 2.953125 -4.34375 Z M 7.109375 -4.34375 "/>
    </g>
  </g>
  <g style="fill:rgb(98.039246%,94.898987%,91.369629%);fill-opacity:1;" transform="matrix(1.008691, 0, 0, 1.002761, 35.467506, 56.342319)">
    <g transform="translate(253.123389, 239.115595)">
      <path style="stroke:none;" d="M 1.15625 -12.796875 L 3.65625 -12.796875 L 5.90625 -4.40625 C 6.007812 -4.019531 6.101562 -3.492188 6.1875 -2.828125 C 6.269531 -2.171875 6.320312 -1.738281 6.34375 -1.53125 L 6.421875 -1.53125 C 6.429688 -1.738281 6.472656 -2.175781 6.546875 -2.84375 C 6.628906 -3.507812 6.722656 -4.03125 6.828125 -4.40625 L 9.109375 -12.796875 L 11.578125 -12.796875 L 11.578125 0 L 9.9375 0 L 9.9375 -9.296875 C 9.9375 -9.484375 9.957031 -9.816406 10 -10.296875 C 10.039062 -10.785156 10.066406 -11.109375 10.078125 -11.265625 L 10 -11.265625 C 9.957031 -11.109375 9.882812 -10.785156 9.78125 -10.296875 C 9.6875 -9.816406 9.617188 -9.484375 9.578125 -9.296875 L 7.015625 0 L 5.546875 0 L 2.984375 -9.296875 C 2.910156 -9.597656 2.835938 -9.957031 2.765625 -10.375 C 2.691406 -10.789062 2.632812 -11.085938 2.59375 -11.265625 L 2.515625 -11.265625 C 2.523438 -11.085938 2.539062 -10.789062 2.5625 -10.375 C 2.59375 -9.957031 2.613281 -9.597656 2.625 -9.296875 L 2.625 0 L 1.15625 0 Z M 1.15625 -12.796875 "/>
    </g>
  </g>
  <g style="fill:rgb(98.039246%,94.898987%,91.369629%);fill-opacity:1;" transform="matrix(1.008691, 0, 0, 1.002761, 35.467506, 56.342319)">
    <g transform="translate(267.48425, 239.115595)">
      <path style="stroke:none;" d="M 1.3125 -12.796875 L 5.875 -12.796875 C 7.101562 -12.796875 8.046875 -12.457031 8.703125 -11.78125 C 9.367188 -11.113281 9.703125 -10.207031 9.703125 -9.0625 C 9.703125 -7.914062 9.351562 -7 8.65625 -6.3125 C 7.96875 -5.625 7.039062 -5.28125 5.875 -5.28125 L 2.953125 -5.28125 L 2.953125 0 L 1.3125 0 Z M 5.828125 -6.765625 C 6.472656 -6.765625 6.992188 -6.972656 7.390625 -7.390625 C 7.785156 -7.804688 7.984375 -8.363281 7.984375 -9.0625 C 7.984375 -9.757812 7.796875 -10.304688 7.421875 -10.703125 C 7.046875 -11.109375 6.515625 -11.3125 5.828125 -11.3125 L 2.953125 -11.3125 L 2.953125 -6.765625 Z M 5.828125 -6.765625 "/>
    </g>
  </g>
  <g style="fill:rgb(98.039246%,94.898987%,91.369629%);fill-opacity:1;" transform="matrix(1.008691, 0, 0, 1.002761, 35.467506, 56.342319)">
    <g transform="translate(279.308942, 239.115595)">
      <path style="stroke:none;" d="M 1.1875 -2.015625 L 3.0625 -2.015625 L 3.0625 0 L 1.1875 0 Z M 1.1875 -2.015625 "/>
    </g>
  </g>
  <g style="fill:rgb(98.039246%,94.898987%,91.369629%);fill-opacity:1;" transform="matrix(1.008691, 0, 0, 1.002761, 35.467506, 56.342319)">
    <g transform="translate(285.184838, 239.115595)">
      <path style="stroke:none;" d="M 1.3125 -12.796875 L 2.71875 -12.796875 L 7.484375 -4.75 C 7.597656 -4.550781 7.742188 -4.25 7.921875 -3.84375 C 8.097656 -3.445312 8.210938 -3.179688 8.265625 -3.046875 L 8.328125 -3.0625 C 8.328125 -3.195312 8.316406 -3.4375 8.296875 -3.78125 C 8.273438 -4.132812 8.265625 -4.457031 8.265625 -4.75 L 8.265625 -12.796875 L 9.734375 -12.796875 L 9.734375 0 L 8.375 0 L 3.578125 -8.15625 C 3.441406 -8.375 3.28125 -8.679688 3.09375 -9.078125 C 2.914062 -9.484375 2.804688 -9.75 2.765625 -9.875 L 2.703125 -9.84375 C 2.710938 -9.71875 2.726562 -9.484375 2.75 -9.140625 C 2.769531 -8.804688 2.78125 -8.476562 2.78125 -8.15625 L 2.78125 0 L 1.3125 0 Z M 1.3125 -12.796875 "/>
    </g>
  </g>
  <g style="fill:rgb(98.039246%,94.898987%,91.369629%);fill-opacity:1;" transform="matrix(1.008691, 0, 0, 1.002761, 35.467506, 56.342319)">
    <g transform="translate(297.848723, 239.115595)">
      <path style="stroke:none;" d="M 1.3125 -12.796875 L 9.203125 -12.796875 L 9.203125 -11.3125 L 2.953125 -11.3125 L 2.953125 -7.296875 L 8.375 -7.296875 L 8.375 -5.796875 L 2.953125 -5.796875 L 2.953125 -1.5 L 9.3125 -1.5 L 9.3125 0 L 1.3125 0 Z M 1.3125 -12.796875 "/>
    </g>
  </g>
  <g style="fill:rgb(98.039246%,94.898987%,91.369629%);fill-opacity:1;" transform="matrix(1.008691, 0, 0, 1.002761, 35.467506, 56.342319)">
    <g transform="translate(309.673415, 239.115595)">
      <path style="stroke:none;" d="M 3.84375 -11.3125 L 0.359375 -11.3125 L 0.359375 -12.796875 L 8.96875 -12.796875 L 8.96875 -11.3125 L 5.484375 -11.3125 L 5.484375 0 L 3.84375 0 Z M 3.84375 -11.3125 "/>
    </g>
  </g>
</svg>